<svg xmlns="http://www.w3.org/2000/svg" xmlns:xlink="http://www.w3.org/1999/xlink" version="1.1" id="Your_Icon" x="0px" y="0px" width="100px" height="100px" viewBox="0 0 100 100" enable-background="new 0 0 100 100" xml:space="preserve">
<path fill-rule="evenodd" clip-rule="evenodd" d="M81.059,8C60.351,8,40,8,19,8c0,18,0,40.581,0,59.101  c1,0.185,1.111,0.473,1.371,0.943c0.053,0.098,0.097,0.237,0.121,0.411c0.05,0.025,0.099,0.065,0.155,0.116l0.09,0.097  c0.025,0.03,0.05,0.065,0.075,0.104c0.026-0.041,0.055-0.08,0.086-0.118l0.084-0.082c0.031-0.03,0.086-0.077,0.162-0.117  c0.023-0.172,0.081-0.311,0.135-0.408c0.636-1.163,2.997-1.254,3.706-1.254c0.708,0,3.067,0.09,3.706,1.251  c0.054,0.098,0.112,0.237,0.137,0.411c0.05,0.025,0.106,0.065,0.163,0.116l0.093,0.097c0.026,0.03,0.053,0.065,0.078,0.104  c0.026-0.041,0.056-0.08,0.087-0.118l0.084-0.082c0.032-0.03,0.087-0.077,0.163-0.117c0.023-0.172,0.081-0.311,0.135-0.408  c0.636-1.163,2.997-1.254,3.706-1.254c0.708,0,3.067,0.09,3.706,1.251c0.054,0.098,0.112,0.237,0.137,0.411  c0.05,0.025,0.106,0.065,0.163,0.116l0.094,0.097c0.025,0.03,0.052,0.065,0.077,0.104c0.026-0.041,0.056-0.08,0.087-0.118  l0.084-0.082c0.032-0.03,0.087-0.077,0.163-0.117c0.023-0.172,0.081-0.311,0.135-0.408c0.636-1.163,2.997-1.254,3.706-1.254  c0.708,0,3.067,0.09,3.706,1.251c0.054,0.098,0.112,0.237,0.137,0.411c0.05,0.025,0.106,0.065,0.163,0.116l0.094,0.097  c0.025,0.03,0.052,0.065,0.077,0.104c0.026-0.041,0.056-0.08,0.087-0.118l0.084-0.082c0.032-0.03,0.087-0.077,0.163-0.117  c0.023-0.172,0.081-0.311,0.135-0.408c0.636-1.163,2.997-1.254,3.706-1.254c0.708,0,3.067,0.09,3.706,1.251  c0.054,0.098,0.112,0.237,0.137,0.411c0.05,0.025,0.106,0.065,0.163,0.115l0.093,0.098c0.026,0.03,0.053,0.065,0.078,0.104  c0.026-0.041,0.056-0.08,0.087-0.118l0.084-0.082c0.032-0.03,0.087-0.077,0.163-0.117c0.023-0.172,0.081-0.311,0.135-0.408  c0.636-1.163,2.997-1.254,3.706-1.254c0.708,0,3.067,0.09,3.706,1.251c0.054,0.098,0.112,0.237,0.137,0.411  c0.05,0.025,0.106,0.065,0.163,0.116l0.094,0.097c0.025,0.03,0.052,0.065,0.077,0.104c0.026-0.041,0.056-0.08,0.087-0.118  l0.084-0.082c0.032-0.03,0.087-0.077,0.163-0.117c0.023-0.172,0.081-0.311,0.135-0.408c0.636-1.163,2.997-1.254,3.706-1.254  c0.708,0,3.067,0.09,3.706,1.251c0.054,0.098,0.112,0.237,0.137,0.411c0.05,0.025,0.106,0.065,0.163,0.116l0.093,0.097  c0.026,0.03,0.053,0.065,0.078,0.104c0.026-0.041,0.056-0.08,0.087-0.118l0.084-0.082c0.032-0.03,0.087-0.077,0.163-0.117  c0.023-0.172,0.081-0.311,0.135-0.408c0.636-1.163,2.997-1.254,3.706-1.254c0.708,0,3.067,0.09,3.706,1.251  c0.054,0.098,0.112,0.237,0.137,0.411c0.05,0.025,0.106,0.065,0.163,0.116l0.094,0.097c0.025,0.03,0.052,0.065,0.077,0.104  c0.026-0.041,0.056-0.08,0.087-0.118l0.084-0.082c0.032-0.03,0.087-0.077,0.163-0.117c0.023-0.172,0.081-0.311,0.135-0.408  c0.245-0.448,0.747-0.881,1.312-1.067C81.031,48.818,81.077,26,81.059,8z M73.112,12c1.325,0,2.648,0,3.974,0  c0.189,10,0.386,18.738,1.443,28.532C72.27,34.65,73.112,12,73.112,12z M64.444,12c1.324,0,2.649,0,3.973,0  c-0.808,9,2.056,22.384,7.585,28.169C68.989,39.073,63.349,21,64.444,12z M59.75,12c0.376,13,4.563,23.66,12.964,28.02  C60.652,36.431,56.463,27,55.416,12C56.86,12,58.305,12,59.75,12z M44.584,12c-1.047,15-5.236,24.431-17.298,28.02  C35.688,35.66,39.874,25,40.25,12C41.695,12,43.14,12,44.584,12z M35.556,12c1.096,9-4.545,27.073-11.558,28.169  C29.527,34.384,32.391,21,31.583,12C32.906,12,34.231,12,35.556,12z M22.914,12c1.325,0,2.648,0,3.974,0  c0,0,0.843,22.65-5.417,28.532C22.528,30.738,22.725,22,22.914,12z M25.425,65c-0.482,0-2.028,0-2.511,0  c-0.108-8,0.343-16.229-1.806-23.117c0.042-0.44,0.108-0.854,0.723-0.72C23.54,47.816,25.6,58,25.425,65z M28.331,64.995  c-0.353,0.039-0.967,0.017-0.967,0.017s-0.341-4.632-0.477-6.156c-0.558-6.25-2.709-12.523-3.611-17.696  C29.505,54.794,30.526,64.945,28.331,64.995z M30.499,56.327c-1.43-5.585-2.503-8.19-5.609-14.892  c5.015,7.278,7.763,14.184,9.222,23.56C31.991,65.378,31.222,59.148,30.499,56.327z M36.273,64.995  c-1.523-9.793-5.557-17.028-10.111-23.788C41.047,38.865,47.634,26,49.275,12c0.241,0,0.482,0,0.723,0  c3.038,14,8.366,26.884,23.836,29.207c-4.729,6.585-8.714,13.87-10.111,23.788C53.084,64.964,46.035,65.11,36.273,64.995z   M69.501,56.327c-0.723,2.821-1.492,9.051-3.612,8.668c1.459-9.376,4.207-16.282,9.222-23.56  C72.003,48.137,70.931,50.742,69.501,56.327z M72.636,65.012c0,0-0.614,0.022-0.968-0.017c-2.194-0.05-1.173-10.201,5.056-23.836  c-0.902,5.173-3.054,11.446-3.611,17.696C72.977,60.38,72.636,65.012,72.636,65.012z M77.086,65c-0.482,0-2.028,0-2.511,0  c-0.175-7,1.885-17.185,3.594-23.838c0.614-0.134,0.681,0.282,0.723,0.722C76.743,48.772,77.194,57,77.086,65z"/>
<path fill-rule="evenodd" clip-rule="evenodd" d="M8.282,78.938c0.708,0,3.067,0.09,3.706,1.25c0.054,0.098,0.112,0.238,0.137,0.412  c0.05,0.025,0.106,0.064,0.163,0.115l0.094,0.098c0.025,0.029,0.052,0.064,0.077,0.104c0.026-0.041,0.056-0.08,0.087-0.117  l0.084-0.082c0.032-0.031,0.087-0.078,0.163-0.117c0.023-0.172,0.081-0.311,0.135-0.408c0.636-1.164,2.997-1.254,3.706-1.254  c0.708,0,3.067,0.09,3.706,1.25c0.054,0.098,0.112,0.238,0.137,0.412c0.05,0.025,0.106,0.064,0.163,0.115l0.094,0.098  c0.025,0.029,0.052,0.064,0.077,0.104c0.026-0.041,0.056-0.08,0.087-0.117l0.084-0.082c0.032-0.031,0.087-0.078,0.163-0.117  c0.023-0.172,0.081-0.311,0.135-0.408c0.636-1.164,2.997-1.254,3.706-1.254c0.708,0,3.067,0.09,3.706,1.25  c0.054,0.098,0.112,0.238,0.137,0.412c0.05,0.025,0.106,0.064,0.163,0.115l0.094,0.098c0.025,0.029,0.052,0.064,0.077,0.104  c0.026-0.041,0.056-0.08,0.087-0.117l0.084-0.082c0.032-0.031,0.087-0.078,0.163-0.117c0.023-0.172,0.081-0.311,0.135-0.408  c0.636-1.164,2.997-1.254,3.706-1.254c0.708,0,3.067,0.09,3.706,1.25c0.054,0.098,0.112,0.238,0.137,0.412  c0.05,0.025,0.106,0.064,0.163,0.115l0.094,0.098c0.025,0.029,0.052,0.064,0.077,0.104c0.026-0.041,0.056-0.08,0.087-0.117  l0.084-0.082c0.032-0.031,0.087-0.078,0.163-0.117c0.023-0.172,0.081-0.311,0.135-0.408c0.636-1.164,2.997-1.254,3.706-1.254  c0.708,0,3.067,0.09,3.706,1.25c0.054,0.098,0.112,0.238,0.137,0.412c0.05,0.025,0.106,0.064,0.163,0.115l0.094,0.098  c0.025,0.029,0.052,0.064,0.077,0.104c0.026-0.041,0.056-0.08,0.087-0.117l0.084-0.082c0.032-0.031,0.087-0.078,0.163-0.117  c0.023-0.172,0.081-0.311,0.135-0.408c0.636-1.164,2.997-1.254,3.706-1.254c0.708,0,3.067,0.09,3.706,1.25  c0.054,0.098,0.112,0.238,0.137,0.412c0.05,0.025,0.106,0.064,0.163,0.115l0.094,0.098c0.025,0.029,0.052,0.064,0.077,0.104  c0.026-0.041,0.056-0.08,0.087-0.117l0.084-0.082c0.032-0.031,0.087-0.078,0.163-0.117c0.023-0.172,0.081-0.311,0.135-0.408  c0.636-1.164,2.997-1.254,3.706-1.254c0.708,0,3.067,0.09,3.706,1.25c0.054,0.098,0.112,0.238,0.137,0.412  c0.05,0.025,0.106,0.064,0.163,0.115l0.094,0.098c0.025,0.029,0.052,0.064,0.077,0.104c0.026-0.041,0.056-0.08,0.087-0.117  l0.084-0.082c0.032-0.031,0.087-0.078,0.163-0.117c0.023-0.172,0.081-0.311,0.135-0.408c0.636-1.164,2.997-1.254,3.706-1.254  c0.708,0,3.067,0.09,3.706,1.25c0.054,0.098,0.112,0.238,0.137,0.412c0.05,0.025,0.106,0.064,0.163,0.115l0.094,0.098  c0.025,0.029,0.052,0.064,0.077,0.104c0.026-0.041,0.056-0.08,0.087-0.117l0.084-0.082c0.032-0.031,0.087-0.078,0.163-0.117  c0.023-0.172,0.081-0.311,0.135-0.408c0.636-1.164,2.997-1.254,3.706-1.254c0.708,0,3.067,0.09,3.706,1.25  c0.054,0.098,0.112,0.238,0.137,0.412c0.05,0.025,0.106,0.064,0.163,0.115l0.094,0.098c0.025,0.029,0.052,0.064,0.077,0.104  c0.026-0.041,0.056-0.08,0.087-0.117l0.084-0.082c0.032-0.031,0.087-0.078,0.163-0.117c0.023-0.172,0.081-0.311,0.135-0.408  c0.636-1.164,2.997-1.254,3.706-1.254c0.708,0,3.067,0.09,3.706,1.25c0.054,0.098,0.112,0.238,0.137,0.412  c0.05,0.025,0.106,0.064,0.163,0.115l0.094,0.098c0.025,0.029,0.052,0.064,0.077,0.104c0.026-0.041,0.056-0.08,0.087-0.117  l0.084-0.082c0.032-0.031,0.087-0.078,0.163-0.117c0.023-0.172,0.081-0.311,0.135-0.408c0.636-1.164,2.997-1.254,3.706-1.254  c0.035,0,0.092,0.002,0.135,0.002c-0.005-0.082-0.01-0.166-0.015-0.248c-0.003-0.027-0.004-0.055-0.006-0.084  c-0.024-0.342-0.054-0.668-0.092-0.971c0-0.008-0.002-0.018-0.002-0.027c-0.017-0.135-0.035-0.266-0.054-0.391  c-0.004-0.027-0.009-0.055-0.014-0.084c-0.016-0.104-0.033-0.203-0.052-0.299c-0.005-0.031-0.012-0.061-0.018-0.09  c-0.018-0.09-0.038-0.174-0.059-0.256c-0.005-0.025-0.013-0.053-0.019-0.076c-0.023-0.09-0.048-0.172-0.074-0.248  c-0.003-0.008-0.005-0.02-0.009-0.027c-0.029-0.084-0.062-0.16-0.095-0.223c-0.003-0.006-0.006-0.008-0.008-0.012  c-0.028-0.057-0.06-0.1-0.091-0.137c-0.011-0.014-0.021-0.02-0.031-0.031c-0.025-0.023-0.051-0.041-0.076-0.053  c-0.014-0.008-0.028-0.012-0.041-0.016c-0.024-0.004-0.05-0.004-0.075,0c-0.016,0.002-0.03,0.006-0.046,0.012  c-0.026,0.012-0.056,0.031-0.082,0.053c-0.015,0.012-0.03,0.02-0.046,0.035c-0.038,0.039-0.077,0.088-0.117,0.148  c-0.005,0.008-0.01,0.012-0.015,0.02c0.791-1.234-1.192-1.852-3.177-1.852c-1.982,0-3.967,0.617-3.175,1.852  c-0.006-0.008-0.01-0.012-0.016-0.02c-0.04-0.061-0.079-0.109-0.117-0.148c-0.015-0.016-0.03-0.023-0.045-0.035  c-0.027-0.021-0.056-0.041-0.082-0.053c-0.017-0.006-0.031-0.01-0.046-0.012c-0.026-0.004-0.052-0.004-0.075,0  c-0.014,0.004-0.028,0.008-0.041,0.016c-0.027,0.012-0.051,0.029-0.075,0.053c-0.011,0.012-0.022,0.018-0.033,0.031  c-0.031,0.037-0.062,0.08-0.09,0.137c-0.004,0.004-0.006,0.006-0.008,0.012c-0.033,0.063-0.065,0.139-0.096,0.223  c-0.003,0.008-0.005,0.02-0.008,0.027c-0.027,0.076-0.053,0.158-0.075,0.248c-0.006,0.023-0.013,0.051-0.019,0.076  c-0.021,0.082-0.04,0.166-0.059,0.256c-0.006,0.029-0.012,0.059-0.017,0.09c-0.019,0.096-0.036,0.195-0.053,0.299  c-0.004,0.029-0.01,0.057-0.014,0.084c-0.012,0.08-0.022,0.164-0.033,0.248c-0.012-0.084-0.022-0.168-0.034-0.248  c-0.004-0.027-0.009-0.055-0.014-0.084c-0.016-0.104-0.033-0.203-0.052-0.299c-0.005-0.031-0.012-0.061-0.018-0.09  c-0.018-0.09-0.038-0.174-0.059-0.256c-0.005-0.025-0.013-0.053-0.019-0.076c-0.023-0.09-0.048-0.172-0.074-0.248  c-0.003-0.008-0.005-0.02-0.009-0.027c-0.029-0.084-0.062-0.16-0.095-0.223c-0.003-0.006-0.006-0.008-0.008-0.012  c-0.028-0.057-0.06-0.1-0.091-0.137c-0.011-0.014-0.021-0.02-0.031-0.031c-0.025-0.023-0.051-0.041-0.076-0.053  c-0.014-0.008-0.028-0.012-0.041-0.016c-0.024-0.004-0.05-0.004-0.075,0c-0.016,0.002-0.03,0.006-0.046,0.012  c-0.026,0.012-0.056,0.031-0.082,0.053c-0.015,0.012-0.03,0.02-0.046,0.035c-0.038,0.039-0.077,0.088-0.117,0.148  c-0.005,0.008-0.01,0.012-0.015,0.02c0.791-1.234-1.192-1.852-3.177-1.852c-1.982,0-3.967,0.617-3.175,1.852  c-0.006-0.008-0.01-0.012-0.016-0.02c-0.04-0.061-0.079-0.109-0.117-0.148c-0.015-0.016-0.03-0.023-0.045-0.035  c-0.027-0.021-0.056-0.041-0.082-0.053c-0.017-0.006-0.031-0.01-0.046-0.012c-0.026-0.004-0.052-0.004-0.075,0  c-0.014,0.004-0.028,0.008-0.041,0.016c-0.027,0.012-0.051,0.029-0.075,0.053c-0.011,0.012-0.022,0.018-0.033,0.031  c-0.031,0.037-0.062,0.08-0.09,0.137c-0.004,0.004-0.006,0.006-0.008,0.012c-0.033,0.063-0.065,0.139-0.096,0.223  c-0.003,0.008-0.005,0.02-0.008,0.027c-0.027,0.076-0.053,0.158-0.075,0.248c-0.006,0.023-0.013,0.051-0.019,0.076  c-0.021,0.082-0.04,0.166-0.059,0.256c-0.006,0.029-0.012,0.059-0.017,0.09c-0.019,0.096-0.036,0.195-0.053,0.299  c-0.004,0.029-0.01,0.057-0.014,0.084c-0.012,0.08-0.022,0.164-0.033,0.248c-0.012-0.084-0.022-0.168-0.034-0.248  c-0.004-0.027-0.009-0.055-0.014-0.084c-0.016-0.104-0.033-0.203-0.052-0.299c-0.005-0.031-0.012-0.061-0.018-0.09  c-0.018-0.09-0.038-0.174-0.059-0.256c-0.005-0.025-0.013-0.053-0.019-0.076c-0.023-0.09-0.048-0.172-0.074-0.248  c-0.003-0.008-0.005-0.02-0.009-0.027c-0.029-0.084-0.062-0.16-0.095-0.223c-0.003-0.006-0.006-0.008-0.008-0.012  c-0.028-0.057-0.06-0.1-0.091-0.137c-0.011-0.014-0.021-0.02-0.031-0.031c-0.025-0.023-0.051-0.041-0.076-0.053  c-0.014-0.008-0.028-0.012-0.041-0.016c-0.024-0.004-0.05-0.004-0.075,0c-0.016,0.002-0.03,0.006-0.046,0.012  c-0.026,0.012-0.056,0.031-0.082,0.053c-0.015,0.012-0.03,0.02-0.046,0.035c-0.038,0.039-0.077,0.088-0.117,0.148  c-0.005,0.008-0.01,0.012-0.015,0.02c0.791-1.234-1.192-1.852-3.177-1.852c-1.982,0-3.967,0.617-3.175,1.852  c-0.006-0.008-0.01-0.012-0.016-0.02c-0.04-0.061-0.079-0.109-0.117-0.148c-0.015-0.016-0.03-0.023-0.045-0.035  c-0.027-0.021-0.056-0.041-0.082-0.053c-0.017-0.006-0.031-0.01-0.046-0.012c-0.026-0.004-0.052-0.004-0.075,0  c-0.014,0.004-0.028,0.008-0.041,0.016c-0.027,0.012-0.051,0.029-0.075,0.053c-0.011,0.012-0.022,0.018-0.033,0.031  c-0.031,0.037-0.062,0.08-0.09,0.137c-0.004,0.004-0.006,0.006-0.008,0.012c-0.033,0.063-0.065,0.139-0.096,0.223  c-0.003,0.008-0.005,0.02-0.008,0.027c-0.027,0.076-0.053,0.158-0.075,0.248c-0.006,0.023-0.013,0.051-0.019,0.076  c-0.021,0.082-0.04,0.166-0.059,0.256c-0.006,0.029-0.012,0.059-0.017,0.09c-0.019,0.096-0.036,0.195-0.053,0.299  c-0.004,0.029-0.01,0.057-0.014,0.084c-0.012,0.08-0.022,0.164-0.033,0.248c-0.012-0.084-0.022-0.168-0.034-0.248  c-0.004-0.027-0.009-0.055-0.014-0.084c-0.016-0.104-0.033-0.203-0.052-0.299c-0.005-0.031-0.012-0.061-0.018-0.09  c-0.018-0.09-0.038-0.174-0.059-0.256c-0.005-0.025-0.013-0.053-0.019-0.076c-0.023-0.09-0.048-0.172-0.074-0.248  c-0.003-0.008-0.005-0.02-0.009-0.027c-0.029-0.084-0.062-0.16-0.095-0.223c-0.003-0.006-0.006-0.008-0.008-0.012  c-0.028-0.057-0.06-0.1-0.091-0.137c-0.011-0.014-0.021-0.02-0.031-0.031c-0.025-0.023-0.051-0.041-0.076-0.053  c-0.014-0.008-0.028-0.012-0.041-0.016c-0.024-0.004-0.05-0.004-0.075,0c-0.016,0.002-0.03,0.006-0.046,0.012  c-0.026,0.012-0.056,0.031-0.082,0.053c-0.015,0.012-0.03,0.02-0.046,0.035c-0.038,0.039-0.077,0.088-0.117,0.148  c-0.005,0.008-0.01,0.012-0.015,0.02c0.791-1.234-1.192-1.852-3.177-1.852c-1.982,0-3.967,0.617-3.175,1.852  c-0.006-0.008-0.01-0.012-0.016-0.02c-0.04-0.061-0.079-0.109-0.117-0.148c-0.015-0.016-0.03-0.023-0.045-0.035  c-0.027-0.021-0.056-0.041-0.082-0.053c-0.017-0.006-0.031-0.01-0.046-0.012c-0.026-0.004-0.052-0.004-0.075,0  c-0.014,0.004-0.028,0.008-0.041,0.016c-0.027,0.012-0.051,0.029-0.075,0.053c-0.011,0.012-0.022,0.018-0.033,0.031  c-0.031,0.037-0.062,0.08-0.09,0.137c-0.004,0.004-0.006,0.006-0.008,0.012c-0.033,0.063-0.065,0.139-0.096,0.223  c-0.003,0.008-0.005,0.02-0.008,0.027c-0.027,0.076-0.053,0.158-0.075,0.248c-0.006,0.023-0.013,0.051-0.019,0.076  c-0.021,0.082-0.04,0.166-0.059,0.256c-0.006,0.029-0.012,0.059-0.017,0.09c-0.019,0.096-0.036,0.195-0.053,0.299  c-0.004,0.029-0.01,0.057-0.014,0.084c-0.012,0.08-0.022,0.164-0.033,0.248c-0.012-0.084-0.022-0.168-0.034-0.248  c-0.004-0.027-0.009-0.055-0.014-0.084c-0.016-0.104-0.033-0.203-0.052-0.299c-0.005-0.031-0.012-0.061-0.018-0.09  c-0.018-0.09-0.038-0.174-0.059-0.256c-0.005-0.025-0.013-0.053-0.019-0.076c-0.023-0.09-0.048-0.172-0.074-0.248  c-0.003-0.008-0.005-0.02-0.009-0.027c-0.029-0.084-0.062-0.16-0.095-0.223c-0.003-0.006-0.006-0.008-0.008-0.012  c-0.028-0.057-0.06-0.1-0.091-0.137c-0.011-0.014-0.021-0.02-0.031-0.031c-0.025-0.023-0.051-0.041-0.076-0.053  c-0.014-0.008-0.028-0.012-0.041-0.016c-0.024-0.004-0.05-0.004-0.075,0c-0.016,0.002-0.03,0.006-0.046,0.012  c-0.026,0.012-0.056,0.031-0.082,0.053c-0.015,0.012-0.03,0.02-0.046,0.035c-0.038,0.039-0.077,0.088-0.117,0.148  c-0.005,0.008-0.01,0.012-0.015,0.02c0.791-1.234-1.192-1.852-3.177-1.852c-1.982,0-3.967,0.617-3.175,1.852  c-0.006-0.008-0.01-0.012-0.016-0.02c-0.04-0.061-0.079-0.109-0.117-0.148c-0.015-0.016-0.03-0.023-0.045-0.035  c-0.027-0.021-0.056-0.041-0.082-0.053c-0.017-0.006-0.031-0.01-0.046-0.012c-0.026-0.004-0.052-0.004-0.075,0  c-0.014,0.004-0.028,0.008-0.041,0.016c-0.027,0.012-0.051,0.029-0.075,0.053c-0.011,0.012-0.022,0.018-0.033,0.031  c-0.031,0.037-0.062,0.08-0.09,0.137c-0.004,0.004-0.006,0.006-0.008,0.012c-0.033,0.063-0.065,0.139-0.096,0.223  c-0.003,0.008-0.005,0.02-0.008,0.027c-0.027,0.076-0.053,0.158-0.075,0.248c-0.006,0.023-0.013,0.051-0.019,0.076  c-0.021,0.082-0.04,0.166-0.059,0.256c-0.006,0.029-0.012,0.059-0.017,0.09c-0.019,0.096-0.036,0.195-0.053,0.299  c-0.004,0.029-0.01,0.057-0.014,0.084c-0.012,0.08-0.022,0.164-0.033,0.248c-0.012-0.084-0.022-0.168-0.034-0.248  c-0.004-0.027-0.009-0.055-0.014-0.084c-0.016-0.104-0.033-0.203-0.052-0.299c-0.005-0.031-0.012-0.061-0.018-0.09  c-0.018-0.09-0.038-0.174-0.059-0.256c-0.005-0.025-0.013-0.053-0.019-0.076c-0.023-0.09-0.048-0.172-0.074-0.248  c-0.003-0.008-0.005-0.02-0.009-0.027c-0.029-0.084-0.062-0.16-0.095-0.223c-0.003-0.006-0.006-0.008-0.008-0.012  c-0.028-0.057-0.06-0.1-0.091-0.137c-0.011-0.014-0.021-0.02-0.031-0.031c-0.025-0.023-0.051-0.041-0.076-0.053  c-0.014-0.008-0.028-0.012-0.041-0.016c-0.024-0.004-0.05-0.004-0.075,0c-0.016,0.002-0.03,0.006-0.046,0.012  c-0.026,0.012-0.056,0.031-0.082,0.053c-0.015,0.012-0.03,0.02-0.046,0.035c-0.038,0.039-0.077,0.088-0.117,0.148  c-0.005,0.008-0.01,0.012-0.015,0.02c0.791-1.234-1.192-1.852-3.177-1.852c-1.982,0-3.967,0.617-3.175,1.852  c-0.006-0.008-0.01-0.012-0.016-0.02c-0.04-0.061-0.079-0.109-0.117-0.148c-0.015-0.016-0.03-0.023-0.045-0.035  c-0.027-0.021-0.056-0.041-0.082-0.053c-0.017-0.006-0.031-0.01-0.046-0.012c-0.026-0.004-0.052-0.004-0.075,0  c-0.014,0.004-0.028,0.008-0.041,0.016c-0.027,0.012-0.051,0.029-0.075,0.053c-0.011,0.012-0.022,0.018-0.033,0.031  c-0.031,0.037-0.062,0.08-0.09,0.137c-0.004,0.004-0.006,0.006-0.008,0.012c-0.033,0.063-0.065,0.139-0.096,0.223  c-0.003,0.008-0.005,0.02-0.008,0.027c-0.027,0.076-0.053,0.158-0.075,0.248c-0.006,0.023-0.013,0.051-0.019,0.076  c-0.021,0.082-0.04,0.166-0.059,0.256c-0.006,0.029-0.012,0.059-0.017,0.09c-0.019,0.096-0.036,0.195-0.053,0.299  c-0.004,0.029-0.01,0.057-0.014,0.084c-0.012,0.08-0.022,0.164-0.033,0.248c-0.012-0.084-0.022-0.168-0.034-0.248  c-0.004-0.027-0.009-0.055-0.014-0.084c-0.016-0.104-0.033-0.203-0.052-0.299c-0.005-0.031-0.012-0.061-0.018-0.09  c-0.018-0.09-0.038-0.174-0.059-0.256c-0.005-0.025-0.013-0.053-0.019-0.076c-0.023-0.09-0.048-0.172-0.074-0.248  c-0.003-0.008-0.005-0.02-0.009-0.027c-0.029-0.084-0.062-0.16-0.095-0.223c-0.003-0.006-0.006-0.008-0.008-0.012  c-0.028-0.057-0.06-0.1-0.091-0.137c-0.011-0.014-0.021-0.02-0.031-0.031c-0.025-0.023-0.051-0.041-0.076-0.053  c-0.014-0.008-0.028-0.012-0.041-0.016c-0.024-0.004-0.05-0.004-0.075,0c-0.016,0.002-0.03,0.006-0.046,0.012  c-0.026,0.012-0.056,0.031-0.082,0.053c-0.015,0.012-0.03,0.02-0.046,0.035c-0.038,0.039-0.077,0.088-0.117,0.148  c-0.005,0.008-0.01,0.012-0.015,0.02c0.791-1.234-1.192-1.852-3.177-1.852c-1.982,0-3.967,0.617-3.175,1.852  c-0.006-0.008-0.01-0.012-0.016-0.02c-0.04-0.061-0.079-0.109-0.117-0.148c-0.015-0.016-0.03-0.023-0.045-0.035  c-0.027-0.021-0.056-0.041-0.082-0.053c-0.017-0.006-0.031-0.01-0.046-0.012c-0.026-0.004-0.052-0.004-0.075,0  c-0.014,0.004-0.028,0.008-0.041,0.016c-0.027,0.012-0.051,0.029-0.075,0.053c-0.011,0.012-0.022,0.018-0.033,0.031  c-0.031,0.037-0.062,0.08-0.09,0.137c-0.004,0.004-0.006,0.006-0.008,0.012c-0.033,0.063-0.065,0.139-0.096,0.223  c-0.003,0.008-0.005,0.02-0.008,0.027c-0.027,0.076-0.053,0.158-0.075,0.248c-0.006,0.023-0.013,0.051-0.019,0.076  c-0.021,0.082-0.04,0.166-0.059,0.256c-0.006,0.029-0.012,0.059-0.017,0.09c-0.019,0.096-0.036,0.195-0.053,0.299  c-0.004,0.029-0.01,0.057-0.014,0.084c-0.012,0.08-0.022,0.164-0.033,0.248c-0.012-0.084-0.022-0.168-0.034-0.248  c-0.004-0.027-0.009-0.055-0.014-0.084c-0.016-0.104-0.033-0.203-0.052-0.299c-0.005-0.031-0.012-0.061-0.018-0.09  c-0.018-0.09-0.038-0.174-0.059-0.256c-0.005-0.025-0.013-0.053-0.019-0.076c-0.023-0.09-0.048-0.172-0.074-0.248  c-0.003-0.008-0.005-0.02-0.009-0.027c-0.029-0.084-0.062-0.16-0.095-0.223c-0.003-0.006-0.006-0.008-0.008-0.012  c-0.028-0.057-0.06-0.1-0.091-0.137c-0.011-0.014-0.021-0.02-0.031-0.031c-0.025-0.023-0.051-0.041-0.076-0.053  c-0.014-0.008-0.028-0.012-0.041-0.016c-0.024-0.004-0.05-0.004-0.075,0c-0.016,0.002-0.03,0.006-0.046,0.012  c-0.026,0.012-0.056,0.031-0.082,0.053c-0.015,0.012-0.03,0.02-0.046,0.035c-0.038,0.039-0.077,0.088-0.117,0.148  c-0.005,0.008-0.01,0.012-0.015,0.02c0.791-1.234-1.192-1.852-3.177-1.852c-1.982,0-3.967,0.617-3.175,1.852  c-0.006-0.008-0.01-0.012-0.016-0.02c-0.04-0.061-0.079-0.109-0.117-0.148c-0.015-0.016-0.03-0.023-0.045-0.035  c-0.027-0.021-0.056-0.041-0.082-0.053c-0.017-0.006-0.031-0.01-0.046-0.012c-0.026-0.004-0.052-0.004-0.075,0  c-0.014,0.004-0.028,0.008-0.041,0.016c-0.027,0.012-0.051,0.029-0.075,0.053c-0.011,0.012-0.022,0.018-0.033,0.031  c-0.031,0.037-0.062,0.08-0.09,0.137c-0.004,0.004-0.006,0.006-0.008,0.012c-0.033,0.063-0.065,0.139-0.096,0.223  c-0.003,0.008-0.005,0.02-0.008,0.027c-0.027,0.076-0.053,0.158-0.075,0.248c-0.006,0.023-0.013,0.051-0.019,0.076  c-0.021,0.082-0.04,0.166-0.059,0.256c-0.006,0.029-0.012,0.059-0.017,0.09c-0.019,0.096-0.036,0.195-0.053,0.299  c-0.004,0.029-0.01,0.057-0.014,0.084c-0.012,0.08-0.022,0.164-0.033,0.248c-0.012-0.084-0.022-0.168-0.034-0.248  c-0.004-0.027-0.009-0.055-0.014-0.084c-0.016-0.104-0.033-0.203-0.052-0.299c-0.005-0.031-0.012-0.061-0.018-0.09  c-0.018-0.09-0.038-0.174-0.059-0.256c-0.005-0.025-0.013-0.053-0.019-0.076c-0.023-0.09-0.048-0.172-0.074-0.248  c-0.003-0.008-0.005-0.02-0.009-0.027c-0.029-0.084-0.062-0.16-0.095-0.223c-0.003-0.006-0.006-0.008-0.008-0.012  c-0.028-0.057-0.06-0.1-0.091-0.137c-0.011-0.014-0.021-0.02-0.031-0.031c-0.025-0.023-0.051-0.041-0.076-0.053  c-0.014-0.008-0.028-0.012-0.041-0.016c-0.024-0.004-0.05-0.004-0.075,0c-0.016,0.002-0.03,0.006-0.046,0.012  c-0.026,0.012-0.056,0.031-0.082,0.053c-0.015,0.012-0.03,0.02-0.046,0.035c-0.038,0.039-0.077,0.088-0.117,0.148  c-0.005,0.008-0.01,0.012-0.015,0.02c0.791-1.234-1.192-1.852-3.177-1.852c-1.982,0-3.967,0.617-3.175,1.852  c-0.006-0.008-0.01-0.012-0.016-0.02c-0.04-0.061-0.079-0.109-0.117-0.148c-0.015-0.016-0.03-0.023-0.045-0.035  c-0.027-0.021-0.056-0.041-0.082-0.053c-0.017-0.006-0.031-0.01-0.046-0.012c-0.026-0.004-0.052-0.004-0.075,0  c-0.014,0.004-0.028,0.008-0.041,0.016c-0.027,0.012-0.051,0.029-0.075,0.053c-0.011,0.012-0.022,0.018-0.033,0.031  c-0.031,0.037-0.062,0.08-0.09,0.137c-0.004,0.004-0.006,0.006-0.008,0.012c-0.033,0.063-0.065,0.139-0.096,0.223  c-0.003,0.008-0.005,0.02-0.008,0.027c-0.027,0.076-0.053,0.158-0.075,0.248c-0.006,0.023-0.013,0.051-0.019,0.076  c-0.021,0.082-0.04,0.166-0.059,0.256c-0.006,0.029-0.012,0.059-0.017,0.09c-0.019,0.096-0.036,0.195-0.053,0.299  c-0.004,0.029-0.01,0.057-0.014,0.084c-0.012,0.08-0.022,0.164-0.033,0.248c-0.012-0.084-0.022-0.168-0.034-0.248  c-0.004-0.027-0.009-0.055-0.014-0.084c-0.016-0.104-0.033-0.203-0.052-0.299c-0.005-0.031-0.012-0.061-0.018-0.09  c-0.018-0.09-0.038-0.174-0.059-0.256c-0.005-0.025-0.013-0.053-0.019-0.076c-0.023-0.09-0.048-0.172-0.074-0.248  c-0.003-0.008-0.005-0.02-0.009-0.027c-0.029-0.084-0.062-0.16-0.095-0.223c-0.003-0.006-0.006-0.008-0.008-0.012  c-0.028-0.057-0.06-0.1-0.091-0.137c-0.011-0.014-0.021-0.02-0.031-0.031c-0.025-0.023-0.051-0.041-0.076-0.053  c-0.014-0.008-0.028-0.012-0.041-0.016c-0.024-0.004-0.05-0.004-0.075,0c-0.016,0.002-0.03,0.006-0.046,0.012  c-0.026,0.012-0.056,0.031-0.082,0.053c-0.015,0.012-0.03,0.02-0.046,0.035c-0.038,0.039-0.077,0.088-0.117,0.148  c-0.005,0.008-0.01,0.012-0.015,0.02c0.791-1.234-1.192-1.852-3.177-1.852c-1.982,0-3.967,0.617-3.175,1.852  c-0.006-0.008-0.01-0.012-0.016-0.02c-0.04-0.061-0.079-0.109-0.117-0.148c-0.015-0.016-0.03-0.023-0.045-0.035  c-0.027-0.021-0.056-0.041-0.082-0.053c-0.017-0.006-0.031-0.01-0.046-0.012c-0.026-0.004-0.052-0.004-0.075,0  c-0.014,0.004-0.028,0.008-0.041,0.016c-0.027,0.012-0.051,0.029-0.075,0.053c-0.011,0.012-0.022,0.018-0.033,0.031  c-0.031,0.037-0.062,0.08-0.09,0.137c-0.004,0.004-0.006,0.006-0.008,0.012c-0.033,0.063-0.065,0.139-0.096,0.223  c-0.003,0.008-0.005,0.02-0.008,0.027c-0.027,0.076-0.053,0.158-0.075,0.248c-0.006,0.023-0.013,0.051-0.019,0.076  c-0.021,0.082-0.04,0.166-0.059,0.256c-0.006,0.029-0.012,0.059-0.017,0.09c-0.019,0.096-0.036,0.195-0.053,0.299  c-0.004,0.029-0.01,0.057-0.014,0.084c-0.019,0.125-0.036,0.256-0.053,0.391c-0.001,0.01-0.004,0.02-0.004,0.027  c-0.036,0.303-0.066,0.629-0.091,0.971c-0.002,0.029-0.002,0.057-0.006,0.084c-0.005,0.082-0.01,0.166-0.015,0.248  C8.191,78.939,8.247,78.938,8.282,78.938z"/>
<path fill-rule="evenodd" clip-rule="evenodd" d="M12.458,73.146c0.708,0,3.067,0.09,3.706,1.251  c0.054,0.098,0.112,0.237,0.137,0.411c0.05,0.025,0.106,0.065,0.163,0.116l0.094,0.097c0.025,0.03,0.052,0.065,0.077,0.104  c0.026-0.041,0.056-0.08,0.087-0.118l0.084-0.082c0.032-0.03,0.087-0.077,0.163-0.117c0.023-0.172,0.081-0.311,0.135-0.408  c0.636-1.163,2.997-1.254,3.706-1.254c0.708,0,3.067,0.09,3.706,1.251c0.054,0.098,0.112,0.237,0.137,0.411  c0.05,0.025,0.106,0.065,0.163,0.115l0.094,0.098c0.025,0.03,0.052,0.065,0.077,0.104c0.026-0.041,0.056-0.08,0.087-0.118  l0.085-0.082c0.031-0.03,0.086-0.077,0.162-0.117c0.023-0.172,0.081-0.311,0.135-0.408c0.636-1.163,2.997-1.254,3.706-1.254  c0.708,0,3.067,0.09,3.706,1.251c0.054,0.098,0.112,0.237,0.137,0.411c0.05,0.025,0.106,0.065,0.163,0.116l0.094,0.097  c0.025,0.03,0.052,0.065,0.077,0.104c0.026-0.041,0.056-0.08,0.087-0.118l0.084-0.082c0.032-0.03,0.087-0.077,0.163-0.117  c0.023-0.172,0.081-0.311,0.135-0.408c0.636-1.163,2.997-1.254,3.706-1.254c0.708,0,3.067,0.09,3.706,1.251  c0.054,0.098,0.112,0.237,0.137,0.411c0.05,0.026,0.106,0.065,0.163,0.116l0.094,0.097c0.025,0.03,0.052,0.065,0.077,0.104  c0.026-0.041,0.056-0.08,0.087-0.118l0.084-0.082c0.032-0.03,0.087-0.077,0.163-0.117c0.023-0.172,0.081-0.311,0.135-0.408  c0.636-1.163,2.997-1.254,3.706-1.254c0.708,0,3.067,0.09,3.706,1.251c0.054,0.098,0.112,0.237,0.137,0.411  c0.05,0.025,0.106,0.065,0.163,0.116l0.094,0.097c0.025,0.03,0.052,0.065,0.077,0.104c0.026-0.041,0.056-0.08,0.087-0.118  l0.084-0.082c0.032-0.03,0.087-0.077,0.163-0.117c0.023-0.172,0.081-0.311,0.135-0.408c0.636-1.163,2.997-1.254,3.706-1.254  c0.708,0,3.067,0.09,3.706,1.251c0.054,0.098,0.112,0.237,0.137,0.411c0.05,0.025,0.106,0.065,0.163,0.116l0.094,0.097  c0.025,0.03,0.052,0.065,0.077,0.104c0.026-0.041,0.056-0.08,0.087-0.118l0.084-0.082c0.032-0.03,0.087-0.077,0.163-0.117  c0.023-0.172,0.081-0.311,0.135-0.408c0.636-1.163,2.997-1.254,3.706-1.254c0.708,0,3.067,0.09,3.706,1.251  c0.054,0.098,0.112,0.237,0.137,0.411c0.05,0.025,0.106,0.065,0.163,0.115l0.094,0.098c0.025,0.03,0.052,0.065,0.077,0.104  c0.026-0.041,0.056-0.08,0.087-0.118l0.085-0.082c0.031-0.03,0.086-0.077,0.162-0.117c0.023-0.172,0.081-0.311,0.135-0.408  c0.636-1.163,2.997-1.254,3.706-1.254c0.708,0,3.067,0.09,3.706,1.251c0.054,0.098,0.112,0.237,0.137,0.411  c0.05,0.025,0.106,0.065,0.163,0.116l0.094,0.097c0.025,0.03,0.052,0.065,0.077,0.104c0.026-0.041,0.056-0.08,0.087-0.118  l0.084-0.082c0.032-0.03,0.087-0.077,0.163-0.117c0.023-0.172,0.081-0.311,0.135-0.408c0.636-1.163,2.997-1.254,3.706-1.254  c0.708,0,3.067,0.09,3.706,1.251c0.054,0.098,0.112,0.237,0.137,0.411c0.05,0.025,0.106,0.065,0.163,0.116l0.094,0.097  c0.025,0.03,0.052,0.065,0.077,0.104c0.026-0.041,0.056-0.08,0.087-0.118l0.084-0.082c0.032-0.03,0.087-0.077,0.163-0.117  c0.023-0.172,0.081-0.311,0.135-0.408c0.636-1.163,2.997-1.254,3.706-1.254c0.035,0,0.092,0.002,0.135,0.002  c-0.005-0.082-0.01-0.166-0.015-0.248c-0.003-0.027-0.004-0.055-0.006-0.083c-0.024-0.342-0.054-0.668-0.092-0.971  c0-0.009-0.002-0.019-0.002-0.027c-0.017-0.136-0.035-0.266-0.054-0.391c-0.004-0.027-0.009-0.056-0.014-0.084  c-0.016-0.104-0.033-0.204-0.052-0.3c-0.005-0.03-0.012-0.061-0.018-0.09c-0.018-0.09-0.038-0.174-0.059-0.255  c-0.005-0.026-0.013-0.053-0.019-0.076c-0.023-0.09-0.048-0.173-0.074-0.248c-0.003-0.009-0.005-0.02-0.009-0.027  c-0.029-0.085-0.062-0.16-0.095-0.223c-0.003-0.006-0.006-0.008-0.008-0.013c-0.028-0.056-0.06-0.1-0.091-0.137  c-0.011-0.014-0.021-0.02-0.031-0.031c-0.025-0.022-0.051-0.041-0.076-0.053c-0.014-0.007-0.028-0.011-0.041-0.015  c-0.024-0.005-0.05-0.005-0.075-0.001c-0.016,0.003-0.03,0.006-0.046,0.012c-0.026,0.013-0.056,0.031-0.082,0.054  c-0.015,0.012-0.03,0.02-0.046,0.035c-0.038,0.039-0.077,0.088-0.117,0.148c-0.005,0.007-0.01,0.011-0.015,0.02  c0.791-1.235-1.192-1.853-3.177-1.853c-1.982,0-3.967,0.617-3.175,1.853c-0.006-0.009-0.01-0.013-0.016-0.02  c-0.04-0.061-0.079-0.109-0.117-0.148c-0.015-0.016-0.03-0.023-0.045-0.035c-0.027-0.022-0.056-0.041-0.082-0.054  c-0.017-0.006-0.031-0.009-0.046-0.012c-0.026-0.004-0.052-0.004-0.075,0.001c-0.014,0.004-0.028,0.008-0.041,0.015  c-0.027,0.012-0.051,0.03-0.075,0.053c-0.011,0.012-0.022,0.018-0.033,0.031c-0.031,0.037-0.062,0.081-0.09,0.137  c-0.004,0.005-0.006,0.007-0.008,0.013c-0.033,0.063-0.065,0.138-0.096,0.223c-0.003,0.008-0.005,0.019-0.008,0.027  c-0.027,0.075-0.053,0.158-0.075,0.248c-0.006,0.023-0.013,0.05-0.019,0.076c-0.021,0.081-0.04,0.165-0.059,0.255  c-0.006,0.029-0.012,0.06-0.017,0.09c-0.019,0.096-0.036,0.195-0.053,0.3c-0.004,0.028-0.01,0.057-0.014,0.084  c-0.012,0.079-0.022,0.164-0.033,0.247c-0.012-0.083-0.022-0.168-0.034-0.247c-0.004-0.027-0.009-0.056-0.014-0.084  c-0.016-0.104-0.033-0.204-0.052-0.3c-0.005-0.03-0.012-0.061-0.018-0.09c-0.018-0.09-0.038-0.174-0.059-0.255  c-0.005-0.026-0.013-0.053-0.019-0.076c-0.023-0.09-0.048-0.173-0.074-0.248c-0.003-0.009-0.005-0.02-0.009-0.027  c-0.029-0.085-0.062-0.16-0.095-0.223c-0.003-0.006-0.006-0.008-0.008-0.013c-0.028-0.056-0.06-0.1-0.091-0.137  c-0.011-0.014-0.021-0.02-0.031-0.031c-0.025-0.022-0.051-0.041-0.076-0.053c-0.014-0.007-0.028-0.011-0.041-0.015  c-0.024-0.005-0.05-0.005-0.075-0.001c-0.016,0.003-0.03,0.006-0.046,0.012c-0.026,0.013-0.056,0.031-0.082,0.054  c-0.015,0.012-0.03,0.02-0.046,0.035c-0.038,0.039-0.077,0.088-0.117,0.148c-0.005,0.007-0.01,0.011-0.015,0.02  c0.791-1.235-1.192-1.853-3.177-1.853c-1.982,0-3.967,0.617-3.175,1.853c-0.006-0.009-0.01-0.013-0.016-0.02  c-0.04-0.061-0.079-0.109-0.117-0.148c-0.015-0.016-0.03-0.023-0.045-0.035c-0.027-0.022-0.056-0.041-0.082-0.054  c-0.017-0.006-0.031-0.009-0.046-0.012c-0.026-0.004-0.052-0.004-0.075,0.001c-0.014,0.004-0.028,0.008-0.041,0.015  c-0.027,0.012-0.051,0.03-0.075,0.053c-0.011,0.012-0.022,0.018-0.033,0.031c-0.031,0.037-0.062,0.081-0.09,0.137  c-0.004,0.005-0.006,0.007-0.008,0.013c-0.033,0.063-0.065,0.138-0.096,0.223c-0.003,0.008-0.005,0.019-0.008,0.027  c-0.027,0.075-0.053,0.158-0.075,0.248c-0.006,0.023-0.013,0.05-0.019,0.076c-0.021,0.081-0.04,0.165-0.059,0.255  c-0.006,0.029-0.012,0.06-0.017,0.09c-0.019,0.096-0.036,0.195-0.053,0.3c-0.004,0.028-0.01,0.057-0.014,0.084  c-0.012,0.079-0.022,0.164-0.033,0.247c-0.012-0.083-0.022-0.168-0.034-0.247c-0.004-0.027-0.009-0.056-0.014-0.084  c-0.016-0.104-0.033-0.204-0.052-0.3c-0.005-0.03-0.012-0.061-0.018-0.09c-0.018-0.09-0.038-0.174-0.059-0.255  c-0.005-0.026-0.013-0.053-0.019-0.076c-0.023-0.09-0.048-0.173-0.074-0.248c-0.003-0.009-0.005-0.02-0.009-0.027  c-0.029-0.085-0.062-0.16-0.095-0.223c-0.003-0.006-0.006-0.008-0.008-0.013c-0.028-0.056-0.06-0.1-0.091-0.137  c-0.011-0.014-0.021-0.02-0.031-0.031c-0.025-0.022-0.051-0.041-0.076-0.053c-0.014-0.007-0.028-0.011-0.041-0.015  c-0.024-0.005-0.05-0.005-0.075-0.001c-0.016,0.003-0.03,0.006-0.046,0.012c-0.026,0.013-0.056,0.031-0.082,0.054  c-0.015,0.012-0.03,0.02-0.046,0.035c-0.038,0.039-0.077,0.088-0.117,0.148c-0.005,0.007-0.01,0.011-0.015,0.02  c0.791-1.235-1.192-1.853-3.177-1.853c-1.982,0-3.967,0.617-3.175,1.853c-0.006-0.009-0.01-0.013-0.016-0.02  c-0.04-0.061-0.079-0.109-0.117-0.148c-0.015-0.016-0.03-0.023-0.045-0.035c-0.027-0.022-0.056-0.041-0.082-0.054  c-0.017-0.006-0.031-0.009-0.046-0.012c-0.026-0.004-0.052-0.004-0.075,0.001c-0.014,0.004-0.028,0.008-0.041,0.015  c-0.027,0.012-0.051,0.03-0.075,0.053c-0.011,0.012-0.022,0.018-0.033,0.031c-0.031,0.037-0.062,0.081-0.09,0.137  c-0.004,0.005-0.006,0.007-0.008,0.013c-0.033,0.063-0.065,0.138-0.096,0.223c-0.003,0.008-0.005,0.019-0.008,0.027  c-0.027,0.075-0.053,0.158-0.075,0.248c-0.006,0.023-0.013,0.05-0.019,0.076c-0.021,0.081-0.04,0.165-0.059,0.255  c-0.006,0.029-0.012,0.06-0.017,0.09c-0.019,0.096-0.036,0.195-0.053,0.3c-0.004,0.028-0.01,0.057-0.014,0.084  c-0.012,0.079-0.022,0.164-0.033,0.247c-0.012-0.083-0.022-0.168-0.034-0.247c-0.004-0.027-0.009-0.056-0.014-0.084  c-0.016-0.104-0.033-0.204-0.052-0.3c-0.005-0.03-0.012-0.061-0.018-0.09c-0.018-0.09-0.038-0.174-0.059-0.255  c-0.005-0.026-0.013-0.053-0.019-0.076c-0.023-0.09-0.048-0.173-0.074-0.248c-0.003-0.009-0.005-0.02-0.009-0.027  c-0.029-0.085-0.062-0.16-0.095-0.223c-0.003-0.006-0.006-0.008-0.008-0.013c-0.028-0.056-0.06-0.1-0.091-0.137  c-0.011-0.014-0.021-0.02-0.031-0.031c-0.025-0.022-0.051-0.041-0.076-0.053c-0.014-0.007-0.028-0.011-0.041-0.015  c-0.024-0.005-0.05-0.005-0.075-0.001c-0.016,0.003-0.03,0.006-0.046,0.012c-0.026,0.013-0.056,0.031-0.082,0.054  c-0.015,0.012-0.03,0.02-0.046,0.035c-0.038,0.039-0.077,0.088-0.117,0.148c-0.005,0.007-0.01,0.011-0.015,0.02  c0.791-1.235-1.192-1.853-3.177-1.853c-1.982,0-3.967,0.617-3.175,1.853c-0.006-0.009-0.01-0.013-0.016-0.02  c-0.04-0.061-0.079-0.109-0.117-0.148c-0.015-0.016-0.03-0.023-0.045-0.035c-0.027-0.022-0.056-0.041-0.082-0.054  c-0.017-0.006-0.031-0.009-0.046-0.012c-0.026-0.004-0.052-0.004-0.075,0.001c-0.014,0.004-0.028,0.008-0.041,0.015  c-0.027,0.012-0.051,0.03-0.075,0.053c-0.011,0.012-0.022,0.018-0.033,0.031c-0.031,0.037-0.062,0.081-0.09,0.137  c-0.004,0.005-0.006,0.007-0.008,0.013c-0.033,0.063-0.065,0.138-0.096,0.223c-0.003,0.008-0.005,0.019-0.008,0.027  c-0.027,0.075-0.053,0.158-0.075,0.248c-0.006,0.023-0.013,0.05-0.019,0.076c-0.021,0.081-0.04,0.165-0.059,0.255  c-0.006,0.029-0.012,0.06-0.017,0.09c-0.019,0.096-0.036,0.195-0.053,0.3c-0.004,0.028-0.01,0.057-0.014,0.084  c-0.012,0.079-0.022,0.164-0.033,0.247c-0.012-0.083-0.022-0.168-0.034-0.247c-0.004-0.027-0.009-0.056-0.014-0.084  c-0.016-0.104-0.033-0.204-0.052-0.3c-0.005-0.03-0.012-0.061-0.018-0.09c-0.018-0.09-0.038-0.174-0.059-0.255  c-0.005-0.026-0.013-0.053-0.019-0.076c-0.023-0.09-0.048-0.173-0.074-0.248c-0.003-0.009-0.005-0.02-0.009-0.027  c-0.029-0.085-0.062-0.16-0.095-0.223c-0.003-0.006-0.006-0.008-0.008-0.013c-0.028-0.056-0.06-0.1-0.091-0.137  c-0.011-0.014-0.021-0.02-0.031-0.031c-0.025-0.022-0.051-0.041-0.076-0.053c-0.014-0.007-0.028-0.011-0.041-0.015  c-0.024-0.005-0.05-0.005-0.075-0.001c-0.016,0.003-0.03,0.006-0.046,0.012c-0.026,0.013-0.056,0.031-0.082,0.054  c-0.015,0.012-0.03,0.02-0.046,0.035c-0.038,0.039-0.077,0.088-0.117,0.148c-0.005,0.007-0.01,0.011-0.015,0.02  c0.791-1.235-1.192-1.853-3.177-1.853c-1.982,0-3.967,0.617-3.175,1.853c-0.006-0.009-0.01-0.013-0.016-0.02  c-0.04-0.061-0.079-0.109-0.117-0.148c-0.015-0.016-0.03-0.023-0.045-0.035c-0.027-0.022-0.056-0.041-0.082-0.054  c-0.017-0.006-0.031-0.009-0.046-0.012c-0.026-0.004-0.052-0.004-0.075,0.001c-0.014,0.004-0.028,0.008-0.041,0.015  c-0.027,0.012-0.051,0.03-0.075,0.053c-0.011,0.012-0.022,0.018-0.033,0.031c-0.031,0.037-0.062,0.081-0.09,0.137  c-0.004,0.005-0.006,0.007-0.008,0.013c-0.033,0.063-0.065,0.138-0.096,0.223c-0.003,0.008-0.005,0.019-0.008,0.027  c-0.027,0.075-0.053,0.158-0.075,0.248c-0.006,0.023-0.013,0.05-0.019,0.076c-0.021,0.081-0.04,0.165-0.059,0.255  c-0.006,0.029-0.012,0.06-0.017,0.09c-0.019,0.096-0.036,0.195-0.053,0.3c-0.004,0.028-0.01,0.057-0.014,0.084  c-0.012,0.079-0.022,0.164-0.033,0.247c-0.012-0.083-0.022-0.168-0.034-0.247c-0.004-0.027-0.009-0.056-0.014-0.084  c-0.016-0.104-0.033-0.204-0.052-0.3c-0.005-0.03-0.012-0.061-0.018-0.09c-0.018-0.09-0.038-0.174-0.059-0.255  c-0.005-0.026-0.013-0.053-0.019-0.076c-0.023-0.09-0.048-0.173-0.074-0.248c-0.003-0.009-0.005-0.02-0.009-0.027  c-0.029-0.085-0.062-0.16-0.095-0.223c-0.003-0.006-0.006-0.008-0.008-0.013c-0.028-0.056-0.06-0.1-0.091-0.137  c-0.011-0.014-0.021-0.02-0.031-0.031c-0.025-0.022-0.051-0.041-0.076-0.053c-0.014-0.007-0.028-0.011-0.041-0.015  c-0.024-0.005-0.05-0.005-0.075-0.001c-0.016,0.003-0.03,0.006-0.046,0.012c-0.026,0.013-0.056,0.031-0.082,0.054  c-0.015,0.012-0.03,0.02-0.046,0.035c-0.038,0.039-0.077,0.088-0.117,0.148c-0.005,0.007-0.01,0.011-0.015,0.02  c0.791-1.235-1.192-1.853-3.177-1.853c-1.982,0-3.967,0.617-3.175,1.853c-0.006-0.009-0.01-0.013-0.016-0.02  c-0.04-0.061-0.079-0.109-0.117-0.148c-0.015-0.016-0.03-0.023-0.045-0.035c-0.027-0.022-0.056-0.041-0.082-0.054  c-0.017-0.006-0.031-0.009-0.046-0.012c-0.026-0.004-0.052-0.004-0.075,0.001c-0.014,0.004-0.028,0.008-0.041,0.015  c-0.027,0.012-0.051,0.03-0.075,0.053c-0.011,0.012-0.022,0.018-0.033,0.031c-0.031,0.037-0.062,0.081-0.09,0.137  c-0.004,0.005-0.006,0.007-0.008,0.013c-0.033,0.063-0.065,0.138-0.096,0.223c-0.003,0.008-0.005,0.019-0.008,0.027  c-0.027,0.075-0.053,0.158-0.075,0.248c-0.006,0.023-0.013,0.05-0.019,0.076c-0.021,0.081-0.04,0.165-0.059,0.255  c-0.006,0.029-0.012,0.06-0.017,0.09c-0.019,0.096-0.036,0.195-0.053,0.3c-0.004,0.028-0.01,0.057-0.014,0.084  c-0.012,0.079-0.022,0.164-0.033,0.247c-0.012-0.083-0.022-0.168-0.034-0.247c-0.004-0.027-0.009-0.056-0.014-0.084  c-0.016-0.104-0.033-0.204-0.052-0.3c-0.005-0.03-0.012-0.061-0.018-0.09c-0.018-0.09-0.038-0.174-0.059-0.255  c-0.005-0.026-0.013-0.053-0.019-0.076c-0.023-0.09-0.048-0.173-0.074-0.248c-0.003-0.009-0.005-0.02-0.009-0.027  c-0.029-0.085-0.062-0.16-0.095-0.223c-0.003-0.006-0.006-0.008-0.008-0.013c-0.028-0.056-0.06-0.1-0.091-0.137  c-0.011-0.014-0.021-0.02-0.031-0.031c-0.025-0.022-0.051-0.041-0.076-0.053c-0.014-0.007-0.028-0.011-0.041-0.015  c-0.024-0.005-0.05-0.005-0.075-0.001c-0.016,0.003-0.03,0.006-0.046,0.012c-0.026,0.013-0.056,0.031-0.082,0.054  c-0.015,0.012-0.03,0.02-0.046,0.035c-0.038,0.039-0.077,0.088-0.117,0.148c-0.005,0.007-0.01,0.011-0.015,0.02  c0.791-1.235-1.192-1.853-3.177-1.853c-1.982,0-3.967,0.617-3.175,1.853c-0.006-0.009-0.01-0.013-0.016-0.02  c-0.04-0.061-0.079-0.109-0.117-0.148c-0.015-0.016-0.03-0.023-0.045-0.035c-0.027-0.022-0.056-0.041-0.082-0.054  c-0.017-0.006-0.031-0.009-0.046-0.012c-0.026-0.004-0.052-0.004-0.075,0.001c-0.014,0.004-0.028,0.008-0.041,0.015  c-0.027,0.012-0.051,0.03-0.075,0.053c-0.011,0.012-0.022,0.018-0.033,0.031c-0.031,0.037-0.062,0.081-0.09,0.137  c-0.004,0.005-0.006,0.007-0.008,0.013c-0.033,0.063-0.065,0.138-0.096,0.223c-0.003,0.008-0.005,0.019-0.008,0.027  c-0.027,0.075-0.053,0.158-0.075,0.248c-0.006,0.023-0.013,0.05-0.019,0.076c-0.021,0.081-0.04,0.165-0.059,0.255  c-0.006,0.029-0.012,0.06-0.017,0.09c-0.019,0.096-0.036,0.195-0.053,0.3c-0.004,0.028-0.01,0.057-0.014,0.084  c-0.012,0.079-0.022,0.164-0.033,0.247c-0.012-0.083-0.022-0.168-0.034-0.247c-0.004-0.027-0.009-0.056-0.014-0.084  c-0.016-0.104-0.033-0.204-0.052-0.3c-0.005-0.03-0.012-0.061-0.018-0.09c-0.018-0.09-0.038-0.174-0.059-0.255  c-0.005-0.026-0.013-0.053-0.019-0.076c-0.023-0.09-0.048-0.173-0.074-0.248c-0.003-0.009-0.005-0.02-0.009-0.027  c-0.029-0.085-0.062-0.16-0.095-0.223c-0.003-0.006-0.006-0.008-0.008-0.013c-0.028-0.056-0.06-0.1-0.091-0.137  c-0.011-0.014-0.021-0.02-0.031-0.031c-0.025-0.022-0.051-0.041-0.076-0.053c-0.014-0.007-0.028-0.011-0.041-0.015  c-0.024-0.005-0.05-0.005-0.075-0.001c-0.016,0.003-0.03,0.006-0.046,0.012c-0.026,0.013-0.056,0.031-0.082,0.054  c-0.015,0.012-0.03,0.02-0.046,0.035c-0.038,0.039-0.077,0.088-0.117,0.148c-0.005,0.007-0.01,0.011-0.015,0.02  c0.791-1.235-1.192-1.853-3.177-1.853c-1.982,0-3.967,0.617-3.175,1.853c-0.006-0.009-0.01-0.013-0.016-0.02  c-0.04-0.061-0.079-0.109-0.117-0.148c-0.015-0.016-0.03-0.023-0.045-0.035c-0.027-0.022-0.056-0.041-0.082-0.054  c-0.017-0.006-0.031-0.009-0.046-0.012c-0.026-0.004-0.052-0.004-0.075,0.001c-0.014,0.004-0.028,0.008-0.041,0.015  c-0.027,0.012-0.051,0.03-0.075,0.053c-0.011,0.012-0.022,0.018-0.033,0.031c-0.031,0.037-0.062,0.081-0.09,0.137  c-0.004,0.005-0.006,0.007-0.008,0.013c-0.033,0.063-0.065,0.138-0.096,0.223c-0.003,0.008-0.005,0.019-0.008,0.027  c-0.027,0.075-0.053,0.158-0.075,0.248c-0.006,0.023-0.013,0.05-0.019,0.076c-0.021,0.081-0.04,0.165-0.059,0.255  c-0.006,0.029-0.012,0.06-0.017,0.09c-0.019,0.096-0.036,0.195-0.053,0.3c-0.004,0.028-0.01,0.057-0.014,0.084  c-0.012,0.079-0.022,0.164-0.033,0.247c-0.012-0.083-0.022-0.168-0.034-0.247c-0.004-0.027-0.009-0.056-0.014-0.084  c-0.016-0.104-0.033-0.204-0.052-0.3c-0.005-0.03-0.012-0.061-0.018-0.09c-0.018-0.09-0.038-0.174-0.059-0.255  c-0.005-0.026-0.013-0.053-0.019-0.076c-0.023-0.09-0.048-0.173-0.074-0.248c-0.003-0.009-0.005-0.02-0.009-0.027  c-0.029-0.085-0.062-0.16-0.095-0.223c-0.003-0.006-0.006-0.008-0.008-0.013c-0.028-0.056-0.06-0.1-0.091-0.137  c-0.011-0.014-0.021-0.02-0.031-0.031c-0.025-0.022-0.051-0.041-0.076-0.053c-0.014-0.007-0.028-0.011-0.041-0.015  c-0.024-0.005-0.05-0.005-0.075-0.001c-0.016,0.003-0.03,0.006-0.046,0.012c-0.026,0.013-0.056,0.031-0.082,0.054  c-0.015,0.012-0.03,0.02-0.046,0.035c-0.038,0.039-0.077,0.088-0.117,0.148c-0.005,0.007-0.01,0.011-0.015,0.02  c0.791-1.235-1.192-1.853-3.177-1.853c-1.982,0-3.967,0.617-3.175,1.853c-0.006-0.009-0.01-0.013-0.016-0.02  c-0.04-0.061-0.079-0.109-0.117-0.148c-0.015-0.016-0.03-0.023-0.045-0.035c-0.027-0.022-0.056-0.041-0.082-0.054  c-0.017-0.006-0.031-0.009-0.046-0.012c-0.026-0.004-0.052-0.004-0.075,0.001c-0.014,0.004-0.028,0.008-0.041,0.015  c-0.027,0.012-0.051,0.03-0.075,0.053c-0.011,0.012-0.022,0.018-0.033,0.031c-0.031,0.037-0.062,0.081-0.09,0.137  c-0.004,0.005-0.006,0.007-0.008,0.013c-0.033,0.063-0.065,0.138-0.096,0.223c-0.003,0.008-0.005,0.019-0.008,0.027  c-0.027,0.075-0.053,0.158-0.075,0.248c-0.006,0.023-0.013,0.05-0.019,0.076c-0.021,0.081-0.04,0.165-0.059,0.255  c-0.006,0.029-0.012,0.06-0.017,0.09c-0.019,0.096-0.036,0.195-0.053,0.3c-0.004,0.028-0.01,0.057-0.014,0.084  c-0.019,0.125-0.036,0.255-0.053,0.391c-0.001,0.009-0.004,0.019-0.004,0.027c-0.036,0.303-0.066,0.629-0.091,0.971  c-0.002,0.028-0.002,0.056-0.006,0.083c-0.005,0.082-0.01,0.166-0.015,0.248C12.367,73.148,12.423,73.146,12.458,73.146z"/>
<path fill-rule="evenodd" clip-rule="evenodd" d="M19.847,92.684c-0.323,0.445-1.165,0.725-2.144,0.84  c-0.007,0.002-0.016,0.002-0.022,0.003c-0.166,0.019-0.335,0.033-0.508,0.043c-0.061,0.004-0.12,0.005-0.182,0.007  c-0.119,0.006-0.236,0.01-0.357,0.009c-0.119,0.001-0.236-0.003-0.355-0.009c-0.062-0.002-0.123-0.003-0.183-0.007  c-0.172-0.01-0.341-0.024-0.507-0.043c-0.007-0.001-0.016-0.001-0.024-0.003c-0.978-0.115-1.82-0.395-2.143-0.84  c-0.403-0.406-0.553-0.816-0.587-0.917c-0.03-0.058-0.06-0.128-0.087-0.203c-0.001-0.001-0.001-0.001-0.002-0.002  c-0.019-0.053-0.037-0.113-0.057-0.175c-0.008-0.028-0.017-0.056-0.025-0.086c-0.016-0.06-0.031-0.123-0.047-0.188  c-0.011-0.041-0.019-0.081-0.028-0.124c-0.014-0.065-0.027-0.133-0.041-0.204c-0.008-0.05-0.018-0.102-0.026-0.152  c-0.013-0.072-0.023-0.142-0.034-0.218c-0.01-0.061-0.018-0.124-0.026-0.185c-0.001-0.006-0.002-0.013-0.002-0.019  c-0.001,0.006-0.003,0.013-0.004,0.019c-0.009,0.061-0.017,0.124-0.025,0.185c-0.011,0.076-0.024,0.146-0.037,0.218  c-0.008,0.051-0.02,0.103-0.029,0.152c-0.012,0.071-0.031,0.139-0.045,0.204c-0.01,0.043-0.029,0.083-0.04,0.124  c-0.015,0.065-0.052,0.129-0.067,0.188c-0.009,0.03-0.061,0.058-0.068,0.086C12.123,91.448,12,91.509,12,91.562  c0,0.001,0,0.002,0,0.002c0,0.075,0.027,0.146-0.004,0.203c-0.033,0.101-0.097,0.511-0.501,0.917  c-0.323,0.445-1.165,0.725-2.144,0.84c-0.007,0.002-0.016,0.002-0.022,0.003c-0.166,0.019-0.335,0.033-0.508,0.043  c-0.061,0.004-0.12,0.005-0.182,0.007c-0.119,0.006-0.236,0.01-0.357,0.009c-0.119,0.001-0.236-0.003-0.355-0.009  c-0.062-0.002-0.123-0.003-0.183-0.007c-0.172-0.01-0.341-0.024-0.507-0.043c-0.007-0.001-0.016-0.001-0.024-0.003  c-0.978-0.115-1.82-0.395-2.143-0.84c-0.403-0.406-0.553-0.816-0.587-0.917c-0.03-0.058-0.06-0.128-0.088-0.204c0,0,0,0-0.001-0.001  c-0.019-0.053-0.037-0.113-0.057-0.175c-0.008-0.028-0.017-0.056-0.025-0.086c-0.016-0.06-0.031-0.123-0.047-0.188  c-0.011-0.041-0.019-0.081-0.028-0.124c-0.014-0.065-0.027-0.133-0.041-0.204c-0.008-0.05-0.018-0.102-0.026-0.152  c-0.013-0.072-0.023-0.142-0.034-0.218c-0.01-0.061-0.018-0.124-0.026-0.185c-0.01-0.075-0.02-0.148-0.029-0.225  c-0.015-0.134-0.03-0.271-0.044-0.412c-0.006-0.071-0.012-0.143-0.018-0.216c-0.007-0.087-0.016-0.176-0.021-0.267  c-0.005-0.072-0.011-0.146-0.015-0.219c-0.006-0.094-0.013-0.188-0.017-0.284c-0.004-0.074-0.009-0.147-0.013-0.223  c-0.004-0.103-0.008-0.206-0.013-0.309c-0.002-0.07-0.004-0.14-0.006-0.209c-0.004-0.125-0.007-0.251-0.011-0.376  c0-0.05-0.002-0.099-0.002-0.148c-0.006-0.365-0.006-0.734,0-1.1c0-0.033,0.001-0.066,0.002-0.099  c0.003-0.148,0.007-0.296,0.011-0.44c0.001-0.047,0.002-0.093,0.004-0.14c0.006-0.134,0.011-0.269,0.017-0.401  c0.002-0.042,0.005-0.087,0.008-0.131c0.007-0.144,0.016-0.285,0.024-0.425c0.004-0.027,0.004-0.055,0.006-0.083  c0.024-0.342,0.055-0.668,0.091-0.971c0-0.009,0.003-0.019,0.004-0.027c0.017-0.136,0.034-0.266,0.053-0.391  c0.004-0.027,0.01-0.056,0.014-0.084c0.017-0.104,0.034-0.204,0.053-0.3c0.005-0.03,0.011-0.061,0.017-0.09  c0.019-0.09,0.038-0.174,0.059-0.255c0.006-0.026,0.013-0.053,0.019-0.076c0.022-0.09,0.048-0.173,0.075-0.248  c0.003-0.009,0.005-0.02,0.008-0.027c0.03-0.085,0.063-0.16,0.096-0.223c0.002-0.006,0.004-0.008,0.008-0.013  c0.028-0.056,0.059-0.1,0.09-0.137c0.011-0.014,0.022-0.02,0.033-0.031c0.024-0.022,0.048-0.041,0.075-0.053  c0.013-0.007,0.027-0.011,0.041-0.015c0.023-0.005,0.049-0.005,0.075-0.001c0.015,0.003,0.029,0.006,0.046,0.012  c0.026,0.013,0.055,0.031,0.082,0.054c0.015,0.012,0.03,0.02,0.045,0.035c0.038,0.039,0.077,0.088,0.117,0.148  c0.006,0.007,0.01,0.011,0.016,0.02C4.315,80.617,6.3,80,8.282,80c1.984,0,3.968,0.617,3.177,1.853  c0.005-0.009,0.01-0.013,0.015-0.02c0.04-0.061,0.079-0.109,0.117-0.148c0.016-0.016,0.031-0.023,0.046-0.035  c0.026-0.022,0.056-0.041,0.082-0.054c0.016-0.006,0.03-0.009,0.046-0.012c0.025-0.004,0.051-0.004,0.075,0.001  c0.013,0.004,0.027,0.008,0.041,0.015c0.025,0.012,0.051,0.03,0.076,0.053c0.01,0.012,0.021,0.018,0.031,0.031  c0.031,0.037,0.063,0.081,0.091,0.137c0.002,0.005,0.005,0.007,0.008,0.013c0.033,0.063,0.065,0.138,0.095,0.223  c0.004,0.008,0.006,0.019,0.009,0.027c0.026,0.075,0.051,0.158,0.074,0.248c0.006,0.023,0.014,0.05,0.019,0.076  c0.021,0.081,0.041,0.165,0.059,0.255c0.006,0.029,0.013,0.06,0.018,0.09c0.019,0.096,0.036,0.195,0.052,0.3  c0.005,0.028,0.01,0.057,0.014,0.084c0.012,0.079,0.022,0.164,0.034,0.247c0.011-0.083,0.021-0.168,0.033-0.247  c0.004-0.027,0.01-0.056,0.014-0.084c0.017-0.104,0.034-0.204,0.053-0.3c0.005-0.03,0.011-0.061,0.017-0.09  c0.019-0.09,0.038-0.174,0.059-0.255c0.006-0.026,0.013-0.053,0.019-0.076c0.022-0.09,0.048-0.173,0.075-0.248  c0.003-0.009,0.005-0.02,0.008-0.027c0.03-0.085,0.063-0.16,0.096-0.223c0.002-0.006,0.004-0.008,0.008-0.013  c0.028-0.056,0.059-0.1,0.09-0.137c0.011-0.014,0.022-0.02,0.033-0.031c0.024-0.022,0.048-0.041,0.075-0.053  c0.013-0.007,0.027-0.011,0.041-0.015c0.023-0.005,0.049-0.005,0.075-0.001c0.015,0.003,0.029,0.006,0.046,0.012  c0.026,0.013,0.055,0.031,0.082,0.054c0.015,0.012,0.03,0.02,0.045,0.035c0.038,0.039,0.077,0.088,0.117,0.148  c0.006,0.007,0.01,0.011,0.016,0.02C12.667,80.617,14.651,80,16.634,80c1.984,0,3.968,0.617,3.177,1.853  c0.005-0.009,0.01-0.013,0.015-0.02c0.04-0.061,0.079-0.109,0.117-0.148c0.016-0.016,0.031-0.023,0.046-0.035  c0.026-0.022,0.056-0.041,0.082-0.054c0.016-0.006,0.03-0.009,0.046-0.012c0.025-0.004,0.051-0.004,0.075,0.001  c0.013,0.004,0.027,0.008,0.041,0.015c0.025,0.012,0.051,0.03,0.076,0.053c0.01,0.012,0.021,0.018,0.031,0.031  c0.031,0.037,0.063,0.081,0.091,0.137c0.002,0.005,0.005,0.007,0.008,0.013c0.033,0.063,0.065,0.138,0.095,0.223  c0.004,0.008,0.006,0.019,0.009,0.027c0.026,0.075,0.051,0.158,0.074,0.248c0.006,0.023,0.014,0.05,0.019,0.076  c0.021,0.081,0.041,0.165,0.059,0.255c0.006,0.029,0.013,0.06,0.018,0.09c0.019,0.096,0.036,0.195,0.052,0.3  c0.005,0.028,0.01,0.057,0.014,0.084c0.012,0.079,0.022,0.164,0.034,0.247c0.011-0.083,0.021-0.168,0.033-0.247  c0.004-0.027,0.01-0.056,0.014-0.084c0.017-0.104,0.034-0.204,0.053-0.3c0.005-0.03,0.011-0.061,0.017-0.09  c0.019-0.09,0.038-0.174,0.059-0.255c0.006-0.026,0.013-0.053,0.019-0.076c0.022-0.09,0.048-0.173,0.075-0.248  c0.003-0.009,0.005-0.02,0.008-0.027c0.03-0.085,0.063-0.16,0.096-0.223c0.002-0.006,0.004-0.008,0.008-0.013  c0.028-0.056,0.059-0.1,0.09-0.137c0.011-0.014,0.022-0.02,0.033-0.031c0.024-0.022,0.048-0.041,0.075-0.053  c0.013-0.007,0.027-0.011,0.041-0.015c0.023-0.005,0.049-0.005,0.075-0.001c0.015,0.003,0.029,0.006,0.046,0.012  c0.026,0.013,0.055,0.031,0.082,0.054c0.015,0.012,0.03,0.02,0.045,0.035c0.038,0.039,0.077,0.088,0.117,0.148  c0.006,0.007,0.01,0.011,0.016,0.02C21.019,80.617,23.003,80,24.985,80c1.984,0,3.968,0.617,3.177,1.853  c0.005-0.009,0.01-0.013,0.015-0.02c0.04-0.061,0.079-0.109,0.117-0.148c0.016-0.016,0.031-0.023,0.046-0.035  c0.026-0.022,0.056-0.041,0.082-0.054c0.016-0.006,0.03-0.009,0.046-0.012c0.025-0.004,0.051-0.004,0.075,0.001  c0.013,0.004,0.027,0.008,0.041,0.015c0.025,0.012,0.051,0.03,0.076,0.053c0.01,0.012,0.021,0.018,0.031,0.031  c0.031,0.037,0.063,0.081,0.091,0.137c0.002,0.005,0.005,0.007,0.008,0.013c0.033,0.063,0.065,0.138,0.095,0.223  c0.004,0.008,0.006,0.019,0.009,0.027c0.026,0.075,0.051,0.158,0.074,0.248c0.006,0.023,0.014,0.05,0.019,0.076  c0.021,0.081,0.041,0.165,0.059,0.255c0.006,0.029,0.013,0.06,0.018,0.09c0.019,0.096,0.036,0.195,0.052,0.3  c0.005,0.028,0.01,0.057,0.014,0.084c0.012,0.079,0.022,0.164,0.034,0.247c0.011-0.083,0.021-0.168,0.033-0.247  c0.004-0.027,0.01-0.056,0.014-0.084c0.017-0.104,0.034-0.204,0.053-0.3c0.005-0.03,0.011-0.061,0.017-0.09  c0.019-0.09,0.038-0.174,0.059-0.255c0.006-0.026,0.013-0.053,0.019-0.076c0.022-0.09,0.048-0.173,0.075-0.248  c0.003-0.009,0.005-0.02,0.008-0.027c0.03-0.085,0.063-0.16,0.096-0.223c0.002-0.006,0.004-0.008,0.008-0.013  c0.028-0.056,0.059-0.1,0.09-0.137c0.011-0.014,0.022-0.02,0.033-0.031c0.024-0.022,0.048-0.041,0.075-0.053  c0.013-0.007,0.027-0.011,0.041-0.015c0.023-0.005,0.049-0.005,0.075-0.001c0.015,0.003,0.029,0.006,0.046,0.012  c0.026,0.013,0.055,0.031,0.082,0.054c0.015,0.012,0.03,0.02,0.045,0.035c0.038,0.039,0.077,0.088,0.117,0.148  c0.006,0.007,0.01,0.011,0.016,0.02C29.37,80.617,31.354,80,33.337,80c1.984,0,3.968,0.617,3.177,1.853  c0.005-0.009,0.01-0.013,0.015-0.02c0.04-0.061,0.079-0.109,0.117-0.148c0.016-0.016,0.031-0.023,0.046-0.035  c0.026-0.022,0.056-0.041,0.082-0.054c0.016-0.006,0.03-0.009,0.046-0.012c0.025-0.004,0.051-0.004,0.075,0.001  c0.013,0.004,0.027,0.008,0.041,0.015c0.025,0.012,0.051,0.03,0.076,0.053c0.01,0.012,0.021,0.018,0.031,0.031  c0.031,0.037,0.063,0.081,0.091,0.137c0.002,0.005,0.005,0.007,0.008,0.013c0.033,0.063,0.065,0.138,0.095,0.223  c0.004,0.008,0.006,0.019,0.009,0.027c0.026,0.075,0.051,0.158,0.074,0.248c0.006,0.023,0.014,0.05,0.019,0.076  c0.021,0.081,0.041,0.165,0.059,0.255c0.006,0.029,0.013,0.06,0.018,0.09c0.019,0.096,0.036,0.195,0.052,0.3  c0.005,0.028,0.01,0.057,0.014,0.084c0.012,0.079,0.022,0.164,0.034,0.247c0.011-0.083,0.021-0.168,0.033-0.247  c0.004-0.027,0.01-0.056,0.014-0.084c0.017-0.104,0.034-0.204,0.053-0.3c0.005-0.03,0.011-0.061,0.017-0.09  c0.019-0.09,0.038-0.174,0.059-0.255c0.006-0.026,0.013-0.053,0.019-0.076c0.022-0.09,0.048-0.173,0.075-0.248  c0.003-0.009,0.005-0.02,0.008-0.027c0.03-0.085,0.063-0.16,0.096-0.223c0.002-0.006,0.004-0.008,0.008-0.013  c0.028-0.056,0.059-0.1,0.09-0.137c0.011-0.014,0.022-0.02,0.033-0.031c0.024-0.022,0.048-0.041,0.075-0.053  c0.013-0.007,0.027-0.011,0.041-0.015c0.023-0.005,0.049-0.005,0.075-0.001c0.015,0.003,0.029,0.006,0.046,0.012  c0.026,0.013,0.055,0.031,0.082,0.054c0.015,0.012,0.03,0.02,0.045,0.035c0.038,0.039,0.077,0.088,0.117,0.148  c0.006,0.007,0.01,0.011,0.016,0.02C37.722,80.617,39.706,80,41.688,80c1.984,0,3.968,0.617,3.177,1.853  c0.005-0.009,0.01-0.013,0.015-0.02c0.04-0.061,0.079-0.109,0.117-0.148c0.016-0.016,0.031-0.023,0.046-0.035  c0.026-0.022,0.056-0.041,0.082-0.054c0.016-0.006,0.03-0.009,0.046-0.012c0.025-0.004,0.051-0.004,0.075,0.001  c0.013,0.004,0.027,0.008,0.041,0.015c0.025,0.012,0.051,0.03,0.076,0.053c0.01,0.012,0.021,0.018,0.031,0.031  c0.031,0.037,0.063,0.081,0.091,0.137c0.002,0.005,0.005,0.007,0.008,0.013c0.033,0.063,0.065,0.138,0.095,0.223  c0.004,0.008,0.006,0.019,0.009,0.027c0.026,0.075,0.051,0.158,0.074,0.248c0.006,0.023,0.014,0.05,0.019,0.076  c0.021,0.081,0.041,0.165,0.059,0.255c0.006,0.029,0.013,0.06,0.018,0.09c0.019,0.096,0.036,0.195,0.052,0.3  c0.005,0.028,0.01,0.057,0.014,0.084c0.012,0.079,0.022,0.164,0.034,0.247c0.011-0.083,0.021-0.168,0.033-0.247  c0.004-0.027,0.01-0.056,0.014-0.084c0.017-0.104,0.034-0.204,0.053-0.3c0.005-0.03,0.011-0.061,0.017-0.09  c0.019-0.09,0.038-0.174,0.059-0.255c0.006-0.026,0.013-0.053,0.019-0.076c0.022-0.09,0.048-0.173,0.075-0.248  c0.003-0.009,0.005-0.02,0.008-0.027c0.03-0.085,0.063-0.16,0.096-0.223c0.002-0.006,0.004-0.008,0.008-0.013  c0.028-0.056,0.059-0.1,0.09-0.137c0.011-0.014,0.022-0.02,0.033-0.031c0.024-0.022,0.048-0.041,0.075-0.053  c0.013-0.007,0.027-0.011,0.041-0.015c0.023-0.005,0.049-0.005,0.075-0.001c0.015,0.003,0.029,0.006,0.046,0.012  c0.026,0.013,0.055,0.031,0.082,0.054c0.015,0.012,0.03,0.02,0.045,0.035c0.038,0.039,0.077,0.088,0.117,0.148  c0.006,0.007,0.01,0.011,0.016,0.02C46.073,80.617,48.058,80,50.04,80c1.984,0,3.968,0.617,3.177,1.853  c0.005-0.009,0.01-0.013,0.015-0.02c0.04-0.061,0.079-0.109,0.117-0.148c0.016-0.016,0.031-0.023,0.046-0.035  c0.026-0.022,0.056-0.041,0.082-0.054c0.016-0.006,0.03-0.009,0.046-0.012c0.025-0.004,0.051-0.004,0.075,0.001  c0.013,0.004,0.027,0.008,0.041,0.015c0.025,0.012,0.051,0.03,0.076,0.053c0.01,0.012,0.021,0.018,0.031,0.031  c0.031,0.037,0.063,0.081,0.091,0.137c0.002,0.005,0.005,0.007,0.008,0.013c0.033,0.063,0.065,0.138,0.095,0.223  c0.004,0.008,0.006,0.019,0.009,0.027c0.026,0.075,0.051,0.158,0.074,0.248c0.006,0.023,0.014,0.05,0.019,0.076  c0.021,0.081,0.041,0.165,0.059,0.255c0.006,0.029,0.013,0.06,0.018,0.09c0.019,0.096,0.036,0.195,0.052,0.3  c0.005,0.028,0.01,0.057,0.014,0.084c0.012,0.079,0.022,0.164,0.034,0.247c0.011-0.083,0.021-0.168,0.033-0.247  c0.004-0.027,0.01-0.056,0.014-0.084c0.017-0.104,0.034-0.204,0.053-0.3c0.005-0.03,0.011-0.061,0.017-0.09  c0.019-0.09,0.038-0.174,0.059-0.255c0.006-0.026,0.013-0.053,0.019-0.076c0.022-0.09,0.048-0.173,0.075-0.248  c0.003-0.009,0.005-0.02,0.008-0.027c0.03-0.085,0.063-0.16,0.096-0.223c0.002-0.006,0.004-0.008,0.008-0.013  c0.028-0.056,0.059-0.1,0.09-0.137c0.011-0.014,0.022-0.02,0.033-0.031c0.024-0.022,0.048-0.041,0.075-0.053  c0.013-0.007,0.027-0.011,0.041-0.015c0.023-0.005,0.049-0.005,0.075-0.001c0.015,0.003,0.029,0.006,0.046,0.012  c0.026,0.013,0.055,0.031,0.082,0.054c0.015,0.012,0.03,0.02,0.045,0.035c0.038,0.039,0.077,0.088,0.117,0.148  c0.006,0.007,0.01,0.011,0.016,0.02C54.425,80.617,56.409,80,58.392,80c1.984,0,3.968,0.617,3.177,1.853  c0.005-0.009,0.01-0.013,0.015-0.02c0.04-0.061,0.079-0.109,0.117-0.148c0.016-0.016,0.031-0.023,0.046-0.035  c0.026-0.022,0.056-0.041,0.082-0.054c0.016-0.006,0.03-0.009,0.046-0.012c0.025-0.004,0.051-0.004,0.075,0.001  c0.013,0.004,0.027,0.008,0.041,0.015c0.025,0.012,0.051,0.03,0.076,0.053c0.01,0.012,0.021,0.018,0.031,0.031  c0.031,0.037,0.063,0.081,0.091,0.137c0.002,0.005,0.005,0.007,0.008,0.013c0.033,0.063,0.065,0.138,0.095,0.223  c0.004,0.008,0.006,0.019,0.009,0.027c0.026,0.075,0.051,0.158,0.074,0.248c0.006,0.023,0.014,0.05,0.019,0.076  c0.021,0.081,0.041,0.165,0.059,0.255c0.006,0.029,0.013,0.06,0.018,0.09c0.019,0.096,0.036,0.195,0.052,0.3  c0.005,0.028,0.01,0.057,0.014,0.084c0.012,0.079,0.022,0.164,0.034,0.247c0.011-0.083,0.021-0.168,0.033-0.247  c0.004-0.027,0.01-0.056,0.014-0.084c0.017-0.104,0.034-0.204,0.053-0.3c0.005-0.03,0.011-0.061,0.017-0.09  c0.019-0.09,0.038-0.174,0.059-0.255c0.006-0.026,0.013-0.053,0.019-0.076c0.022-0.09,0.048-0.173,0.075-0.248  c0.003-0.009,0.005-0.02,0.008-0.027c0.03-0.085,0.063-0.16,0.096-0.223c0.002-0.006,0.004-0.008,0.008-0.013  c0.028-0.056,0.059-0.1,0.09-0.137c0.011-0.014,0.022-0.02,0.033-0.031c0.024-0.022,0.048-0.041,0.075-0.053  c0.013-0.007,0.027-0.011,0.041-0.015c0.023-0.005,0.049-0.005,0.075-0.001c0.015,0.003,0.029,0.006,0.046,0.012  c0.026,0.013,0.055,0.031,0.082,0.054c0.015,0.012,0.03,0.02,0.045,0.035c0.038,0.039,0.077,0.088,0.117,0.148  c0.006,0.007,0.01,0.011,0.016,0.02C62.776,80.617,64.761,80,66.743,80c1.984,0,3.968,0.617,3.177,1.853  c0.005-0.009,0.01-0.013,0.015-0.02c0.04-0.061,0.079-0.109,0.117-0.148c0.016-0.016,0.031-0.023,0.046-0.035  c0.026-0.022,0.056-0.041,0.082-0.054c0.016-0.006,0.03-0.009,0.046-0.012c0.025-0.004,0.051-0.004,0.075,0.001  c0.013,0.004,0.027,0.008,0.041,0.015c0.025,0.012,0.051,0.03,0.076,0.053c0.01,0.012,0.021,0.018,0.031,0.031  c0.031,0.037,0.063,0.081,0.091,0.137c0.002,0.005,0.005,0.007,0.008,0.013c0.033,0.063,0.065,0.138,0.095,0.223  c0.004,0.008,0.006,0.019,0.009,0.027c0.026,0.075,0.051,0.158,0.074,0.248c0.006,0.023,0.014,0.05,0.019,0.076  c0.021,0.081,0.041,0.165,0.059,0.255c0.006,0.029,0.013,0.06,0.018,0.09c0.019,0.096,0.036,0.195,0.052,0.3  c0.005,0.028,0.01,0.057,0.014,0.084c0.012,0.079,0.022,0.164,0.034,0.247c0.011-0.083,0.021-0.168,0.033-0.247  c0.004-0.027,0.01-0.056,0.014-0.084c0.017-0.104,0.034-0.204,0.053-0.3c0.005-0.03,0.011-0.061,0.017-0.09  c0.019-0.09,0.038-0.174,0.059-0.255c0.006-0.026,0.013-0.053,0.019-0.076c0.022-0.09,0.048-0.173,0.075-0.248  c0.003-0.009,0.005-0.02,0.008-0.027c0.03-0.085,0.063-0.16,0.096-0.223c0.002-0.006,0.004-0.008,0.008-0.013  c0.028-0.056,0.059-0.1,0.09-0.137c0.011-0.014,0.022-0.02,0.033-0.031c0.024-0.022,0.048-0.041,0.075-0.053  c0.013-0.007,0.027-0.011,0.041-0.015c0.023-0.005,0.049-0.005,0.075-0.001c0.015,0.003,0.029,0.006,0.046,0.012  c0.026,0.013,0.055,0.031,0.082,0.054c0.015,0.012,0.03,0.02,0.045,0.035c0.038,0.039,0.077,0.088,0.117,0.148  c0.006,0.007,0.01,0.011,0.016,0.02C71.128,80.617,73.112,80,75.095,80c1.984,0,3.968,0.617,3.177,1.853  c0.005-0.009,0.01-0.013,0.015-0.02c0.04-0.061,0.079-0.109,0.117-0.148c0.016-0.016,0.031-0.023,0.046-0.035  c0.026-0.022,0.056-0.041,0.082-0.054c0.016-0.006,0.03-0.009,0.046-0.012c0.025-0.004,0.051-0.004,0.075,0.001  c0.013,0.004,0.027,0.008,0.041,0.015c0.025,0.012,0.051,0.03,0.076,0.053c0.01,0.012,0.021,0.018,0.031,0.031  c0.031,0.037,0.063,0.081,0.091,0.137c0.002,0.005,0.005,0.007,0.008,0.013c0.033,0.063,0.065,0.138,0.095,0.223  c0.004,0.008,0.006,0.019,0.009,0.027c0.026,0.075,0.051,0.158,0.074,0.248c0.006,0.023,0.014,0.05,0.019,0.076  c0.021,0.081,0.041,0.165,0.059,0.255c0.006,0.029,0.013,0.06,0.018,0.09c0.019,0.096,0.036,0.195,0.052,0.3  c0.005,0.028,0.01,0.057,0.014,0.084c0.012,0.079,0.022,0.164,0.034,0.247c0.011-0.083,0.021-0.168,0.033-0.247  c0.004-0.027,0.01-0.056,0.014-0.084c0.017-0.104,0.034-0.204,0.053-0.3c0.005-0.03,0.011-0.061,0.017-0.09  c0.019-0.09,0.038-0.174,0.059-0.255c0.006-0.026,0.013-0.053,0.019-0.076c0.022-0.09,0.048-0.173,0.075-0.248  c0.003-0.009,0.005-0.02,0.008-0.027c0.03-0.085,0.063-0.16,0.096-0.223c0.002-0.006,0.004-0.008,0.008-0.013  c0.028-0.056,0.059-0.1,0.09-0.137c0.011-0.014,0.022-0.02,0.033-0.031c0.024-0.022,0.048-0.041,0.075-0.053  c0.013-0.007,0.027-0.011,0.041-0.015c0.023-0.005,0.049-0.005,0.075-0.001c0.015,0.003,0.029,0.006,0.046,0.012  c0.026,0.013,0.055,0.031,0.082,0.054c0.015,0.012,0.03,0.02,0.045,0.035c0.038,0.039,0.077,0.088,0.117,0.148  c0.006,0.007,0.01,0.011,0.016,0.02C79.479,80.617,81.464,80,83.446,80c1.984,0,3.968,0.617,3.177,1.853  c0.005-0.009,0.01-0.013,0.015-0.02c0.04-0.061,0.079-0.109,0.117-0.148c0.016-0.016,0.031-0.023,0.046-0.035  c0.026-0.022,0.056-0.041,0.082-0.054c0.016-0.006,0.03-0.009,0.046-0.012c0.025-0.004,0.051-0.004,0.075,0.001  c0.013,0.004,0.027,0.008,0.041,0.015c0.025,0.012,0.051,0.03,0.076,0.053c0.01,0.012,0.021,0.018,0.031,0.031  c0.031,0.037,0.063,0.081,0.091,0.137c0.002,0.005,0.005,0.007,0.008,0.013c0.033,0.063,0.065,0.138,0.095,0.223  c0.004,0.008,0.006,0.019,0.009,0.027c0.026,0.075,0.051,0.158,0.074,0.248c0.006,0.023,0.014,0.05,0.019,0.076  c0.021,0.081,0.041,0.165,0.059,0.255c0.006,0.029,0.013,0.06,0.018,0.09c0.019,0.096,0.036,0.195,0.052,0.3  c0.005,0.028,0.01,0.057,0.014,0.084c0.012,0.079,0.022,0.164,0.034,0.247c0.011-0.083,0.021-0.168,0.033-0.247  c0.004-0.027,0.01-0.056,0.014-0.084c0.017-0.104,0.034-0.204,0.053-0.3c0.005-0.03,0.011-0.061,0.017-0.09  c0.019-0.09,0.038-0.174,0.059-0.255c0.006-0.026,0.013-0.053,0.019-0.076c0.022-0.09,0.048-0.173,0.075-0.248  c0.003-0.009,0.005-0.02,0.008-0.027c0.03-0.085,0.063-0.16,0.096-0.223c0.002-0.006,0.004-0.008,0.008-0.013  c0.028-0.056,0.059-0.1,0.09-0.137c0.011-0.014,0.022-0.02,0.033-0.031c0.024-0.022,0.048-0.041,0.075-0.053  c0.013-0.007,0.027-0.011,0.041-0.015c0.023-0.005,0.049-0.005,0.075-0.001c0.015,0.003,0.029,0.006,0.046,0.012  c0.026,0.013,0.055,0.031,0.082,0.054c0.015,0.012,0.03,0.02,0.045,0.035c0.038,0.039,0.077,0.088,0.117,0.148  c0.006,0.007,0.01,0.011,0.016,0.02C87.831,80.617,89.815,80,91.798,80c1.984,0,3.968,0.617,3.177,1.853  c0.005-0.009,0.01-0.013,0.015-0.02c0.04-0.061,0.079-0.109,0.117-0.148c0.016-0.016,0.031-0.023,0.046-0.035  c0.026-0.022,0.056-0.041,0.082-0.054c0.016-0.006,0.03-0.009,0.046-0.012c0.025-0.004,0.051-0.004,0.075,0.001  c0.013,0.004,0.027,0.008,0.041,0.015c0.025,0.012,0.051,0.03,0.076,0.053c0.01,0.012,0.021,0.018,0.031,0.031  c0.031,0.037,0.063,0.081,0.091,0.137c0.002,0.005,0.005,0.007,0.008,0.013c0.033,0.063,0.065,0.138,0.095,0.223  c0.004,0.008,0.006,0.019,0.009,0.027c0.026,0.075,0.051,0.158,0.074,0.248c0.006,0.023,0.014,0.05,0.019,0.076  c0.021,0.081,0.041,0.165,0.059,0.255c0.006,0.029,0.013,0.06,0.018,0.09c0.019,0.096,0.036,0.195,0.052,0.3  c0.005,0.028,0.01,0.057,0.014,0.084c0.019,0.125,0.037,0.255,0.054,0.391c0,0.009,0.002,0.019,0.002,0.027  c0.038,0.303,0.067,0.629,0.092,0.971c0.002,0.028,0.003,0.056,0.006,0.083c0.009,0.14,0.019,0.281,0.025,0.425  c0.002,0.044,0.004,0.089,0.007,0.131c0.006,0.133,0.012,0.268,0.017,0.401c0.002,0.047,0.004,0.093,0.004,0.14  c0.005,0.145,0.008,0.292,0.01,0.44c0.003,0.032,0.003,0.065,0.004,0.099c0.005,0.365,0.005,0.734,0,1.1  c-0.001,0.05-0.004,0.099-0.004,0.148c-0.002,0.125-0.005,0.251-0.009,0.376c-0.002,0.069-0.005,0.139-0.008,0.209  c-0.004,0.103-0.008,0.206-0.012,0.309c-0.005,0.075-0.009,0.148-0.012,0.223c-0.005,0.096-0.012,0.19-0.018,0.284  c-0.004,0.073-0.009,0.146-0.015,0.219c-0.006,0.091-0.014,0.18-0.021,0.267c-0.007,0.073-0.013,0.145-0.02,0.216  c-0.012,0.142-0.026,0.278-0.042,0.412c-0.009,0.076-0.019,0.149-0.029,0.225c-0.009,0.061-0.016,0.124-0.023,0.185  c-0.012,0.076-0.021,0.146-0.033,0.218c-0.008,0.051-0.013,0.103-0.022,0.152c-0.012,0.071-0.016,0.139-0.029,0.204  c-0.01,0.043,0.001,0.083-0.01,0.124c-0.015,0.065-0.439,1.165-0.844,1.571c-0.323,0.445-1.165,0.725-2.144,0.84  c-0.007,0.002-0.016,0.002-0.022,0.003c-0.166,0.019-0.335,0.033-0.508,0.043c-0.061,0.004-0.12,0.005-0.182,0.007  c-0.119,0.006-0.236,0.01-0.357,0.009c-0.119,0.001-0.236-0.003-0.355-0.009c-0.062-0.002-0.123-0.003-0.183-0.007  c-0.172-0.01-0.341-0.024-0.507-0.043c-0.007-0.001-0.016-0.001-0.024-0.003c-0.978-0.115-1.82-0.395-2.143-0.84  c-0.403-0.406-0.553-0.816-0.587-0.917c-0.03-0.058-0.06-0.128-0.087-0.203c-0.001-0.001-0.001-0.001-0.002-0.002  c-0.019-0.053-0.037-0.113-0.057-0.175c-0.008-0.028-0.017-0.056-0.025-0.086c-0.016-0.06-0.031-0.123-0.047-0.188  c-0.011-0.041-0.019-0.081-0.028-0.124c-0.014-0.065-0.027-0.133-0.041-0.204c-0.008-0.05-0.018-0.102-0.026-0.152  c-0.013-0.072-0.023-0.142-0.034-0.218c-0.01-0.061-0.018-0.124-0.026-0.185c-0.001-0.006-0.003-0.013-0.003-0.019  c-0.001,0.006-0.002,0.013-0.003,0.019c-0.009,0.061-0.019,0.124-0.027,0.185c-0.011,0.076-0.024,0.146-0.037,0.218  c-0.008,0.051-0.023,0.103-0.033,0.152c-0.012,0.071-0.035,0.139-0.049,0.204c-0.01,0.043-0.04,0.083-0.051,0.124  c-0.015,0.065-0.358,1.165-0.763,1.571c-0.323,0.445-1.165,0.725-2.144,0.84c-0.007,0.002-0.016,0.002-0.022,0.003  c-0.166,0.019-0.335,0.033-0.508,0.043c-0.061,0.004-0.12,0.005-0.182,0.007c-0.119,0.006-0.236,0.01-0.357,0.009  c-0.119,0.001-0.236-0.003-0.355-0.009c-0.062-0.002-0.123-0.003-0.183-0.007c-0.172-0.01-0.341-0.024-0.507-0.043  c-0.007-0.001-0.016-0.001-0.024-0.003c-0.978-0.115-1.82-0.395-2.143-0.84c-0.403-0.406-0.553-0.816-0.587-0.917  c-0.03-0.058-0.06-0.128-0.087-0.203c-0.001-0.001-0.001-0.001-0.002-0.002c-0.019-0.053-0.037-0.113-0.057-0.175  c-0.008-0.028-0.017-0.056-0.025-0.086c-0.016-0.06-0.031-0.123-0.047-0.188c-0.011-0.041-0.019-0.081-0.028-0.124  c-0.014-0.065-0.027-0.133-0.041-0.204c-0.008-0.05-0.018-0.102-0.026-0.152c-0.013-0.072-0.023-0.142-0.034-0.218  c-0.01-0.061-0.018-0.124-0.026-0.185c-0.001-0.006-0.002-0.013-0.002-0.019c-0.001,0.006-0.002,0.013-0.003,0.019  c-0.009,0.061-0.017,0.124-0.025,0.185c-0.011,0.076-0.022,0.146-0.035,0.218c-0.008,0.051-0.017,0.103-0.026,0.152  c-0.012,0.071-0.025,0.139-0.039,0.204c-0.01,0.043-0.018,0.083-0.028,0.124c-0.015,0.065-0.028,0.129-0.044,0.188  c-0.009,0.03-0.014,0.058-0.021,0.086C79.029,91.448,79,91.509,79,91.562c0,0.001,0,0.002,0,0.002c0,0.075-0.066,0.146-0.098,0.203  c-0.033,0.101-0.19,0.511-0.595,0.917c-0.323,0.445-1.165,0.725-2.144,0.84c-0.007,0.002-0.016,0.002-0.022,0.003  c-0.166,0.019-0.335,0.033-0.508,0.043c-0.061,0.004-0.12,0.005-0.182,0.007c-0.119,0.006-0.236,0.01-0.357,0.009  c-0.119,0.001-0.236-0.003-0.355-0.009c-0.062-0.002-0.123-0.003-0.183-0.007c-0.172-0.01-0.341-0.024-0.507-0.043  c-0.007-0.001-0.016-0.001-0.024-0.003c-0.978-0.115-1.82-0.395-2.143-0.84c-0.403-0.406-0.553-0.816-0.587-0.917  c-0.03-0.058-0.06-0.128-0.087-0.203c-0.001-0.001-0.001-0.001-0.002-0.002c-0.019-0.053-0.036-0.113-0.056-0.175  c-0.008-0.028-0.017-0.056-0.025-0.086c-0.016-0.06-0.03-0.123-0.046-0.188c-0.01-0.041-0.016-0.081-0.025-0.124  c-0.014-0.065-0.022-0.133-0.036-0.204c-0.008-0.05-0.008-0.102-0.017-0.152c-0.013-0.072-0.004-0.142-0.015-0.218  C70.978,90.354,71,90.29,71,90.229c0-0.006,0-0.013,0-0.019c0,0.006-0.041,0.013-0.043,0.019c-0.008,0.061-0.054,0.124-0.063,0.185  c-0.011,0.076-0.02,0.146-0.032,0.218c-0.008,0.051-0.012,0.103-0.021,0.152c-0.012,0.071-0.014,0.139-0.027,0.204  c-0.01,0.043,0.004,0.083-0.007,0.124c-0.015,0.065,0.016,0.129,0,0.188c-0.009,0.03-0.446,0.977-0.851,1.383  c-0.323,0.445-1.165,0.725-2.144,0.84c-0.007,0.002-0.016,0.002-0.022,0.003c-0.166,0.019-0.335,0.033-0.508,0.043  c-0.061,0.004-0.12,0.005-0.182,0.007c-0.119,0.006-0.236,0.01-0.357,0.009c-0.119,0.001-0.236-0.003-0.355-0.009  c-0.062-0.002-0.123-0.003-0.183-0.007c-0.172-0.01-0.341-0.024-0.507-0.043c-0.007-0.001-0.016-0.001-0.024-0.003  c-0.978-0.115-1.82-0.395-2.143-0.84c-0.403-0.406-0.553-0.816-0.587-0.917c-0.03-0.058-0.06-0.128-0.087-0.203  c-0.001-0.001-0.001-0.001-0.002-0.002c-0.019-0.053-0.037-0.113-0.057-0.175c-0.008-0.028-0.017-0.056-0.025-0.086  c-0.016-0.06-0.031-0.123-0.047-0.188c-0.011-0.041-0.019-0.081-0.028-0.124c-0.014-0.065-0.027-0.133-0.041-0.204  c-0.008-0.05-0.018-0.102-0.026-0.152c-0.013-0.072-0.023-0.142-0.034-0.218c-0.01-0.061-0.018-0.124-0.026-0.185  c-0.001-0.006-0.003-0.013-0.003-0.019c-0.001,0.006-0.002,0.013-0.003,0.019c-0.009,0.061-0.018,0.124-0.026,0.185  c-0.011,0.076-0.024,0.146-0.038,0.218c-0.008,0.051-0.021,0.103-0.031,0.152c-0.012,0.071-0.034,0.139-0.048,0.204  c-0.01,0.043-0.036,0.083-0.047,0.124c-0.015,0.065-0.365,1.165-0.77,1.571c-0.323,0.445-1.165,0.725-2.144,0.84  c-0.007,0.002-0.016,0.002-0.022,0.003c-0.166,0.019-0.335,0.033-0.508,0.043c-0.061,0.004-0.12,0.005-0.182,0.007  c-0.119,0.006-0.236,0.01-0.357,0.009c-0.119,0.001-0.236-0.003-0.355-0.009c-0.062-0.002-0.123-0.003-0.183-0.007  c-0.172-0.01-0.341-0.024-0.507-0.043c-0.007-0.001-0.016-0.001-0.024-0.003c-0.978-0.115-1.82-0.395-2.143-0.84  c-0.403-0.406-0.553-0.816-0.587-0.917c-0.03-0.058-0.06-0.128-0.087-0.203c-0.001-0.001-0.001-0.001-0.002-0.002  c-0.019-0.053-0.037-0.113-0.057-0.175c-0.008-0.028-0.017-0.056-0.025-0.086c-0.016-0.06-0.031-0.123-0.047-0.188  c-0.011-0.041-0.019-0.081-0.028-0.124c-0.014-0.065-0.027-0.133-0.041-0.204c-0.008-0.05-0.018-0.102-0.026-0.152  c-0.013-0.072-0.023-0.142-0.034-0.218c-0.01-0.061-0.018-0.124-0.026-0.185c-0.001-0.006-0.002-0.013-0.002-0.019  c-0.001,0.006-0.002,0.013-0.003,0.019c-0.009,0.061-0.016,0.124-0.024,0.185c-0.011,0.076-0.022,0.146-0.035,0.218  c-0.008,0.051-0.017,0.103-0.026,0.152c-0.012,0.071-0.022,0.139-0.036,0.204c-0.01,0.043-0.435,1.289-0.839,1.695  c-0.323,0.445-1.165,0.725-2.144,0.84c-0.007,0.002-0.016,0.002-0.022,0.003c-0.166,0.019-0.335,0.033-0.508,0.043  c-0.061,0.004-0.121,0.005-0.183,0.007c-0.119,0.006-0.236,0.01-0.357,0.009c-0.119,0.001-0.237-0.003-0.356-0.009  c-0.062-0.002-0.126-0.003-0.186-0.007c-0.172-0.01-0.346-0.024-0.512-0.043c-0.007-0.001-0.025-0.001-0.034-0.003  c-0.978-0.115-1.84-0.395-2.162-0.84C46,92,45.971,90.49,45.96,90.414C45.95,90.354,46,90.29,46,90.229c0-0.006,0-0.013,0-0.019  c0,0.006-0.068,0.013-0.068,0.019c-0.01,0.061-0.083,0.124-0.092,0.185c-0.011,0.076-0.019,0.146-0.031,0.218  c-0.008,0.051-0.011,0.103-0.021,0.152c-0.012,0.071-0.013,0.139-0.026,0.204c-0.01,0.043,0.008,0.083-0.003,0.124  c-0.015,0.065-0.453,1.165-0.857,1.571c-0.323,0.445-1.165,0.725-2.144,0.84c-0.007,0.002-0.016,0.002-0.022,0.003  c-0.166,0.019-0.335,0.033-0.508,0.043c-0.061,0.004-0.12,0.005-0.182,0.007c-0.119,0.006-0.236,0.01-0.357,0.009  c-0.119,0.001-0.236-0.003-0.355-0.009c-0.062-0.002-0.123-0.003-0.183-0.007c-0.172-0.01-0.341-0.024-0.507-0.043  c-0.007-0.001-0.016-0.001-0.024-0.003c-0.978-0.115-1.82-0.395-2.143-0.84c-0.403-0.406-0.553-0.816-0.587-0.917  c-0.03-0.058-0.06-0.128-0.087-0.203c-0.001-0.001-0.001-0.001-0.002-0.002c-0.019-0.053-0.037-0.113-0.057-0.175  c-0.008-0.028-0.017-0.056-0.025-0.086c-0.016-0.06-0.031-0.123-0.047-0.188c-0.011-0.041-0.019-0.081-0.028-0.124  c-0.014-0.065-0.027-0.133-0.041-0.204c-0.008-0.05-0.018-0.102-0.026-0.152c-0.013-0.072-0.023-0.142-0.034-0.218  c-0.01-0.061-0.018-0.124-0.026-0.185c-0.001-0.006-0.002-0.013-0.002-0.019c-0.001,0.006-0.003,0.013-0.004,0.019  c-0.009,0.061-0.018,0.124-0.026,0.185c-0.011,0.076-0.024,0.146-0.037,0.218c-0.008,0.051-0.021,0.103-0.03,0.152  c-0.012,0.071-0.032,0.139-0.046,0.204c-0.01,0.043-0.033,0.083-0.044,0.124c-0.015,0.065-0.059,0.129-0.074,0.188  c-0.009,0.03-0.074,0.058-0.082,0.086C37.15,91.448,37,91.509,37,91.562c0,0.001,0,0.002,0,0.002c0,0.075,0.055,0.146,0.023,0.203  c-0.033,0.101-0.069,0.511-0.474,0.917c-0.323,0.445-1.165,0.725-2.144,0.84c-0.007,0.002-0.016,0.002-0.022,0.003  c-0.166,0.019-0.335,0.033-0.508,0.043c-0.061,0.004-0.12,0.005-0.182,0.007c-0.119,0.006-0.236,0.01-0.357,0.009  c-0.119,0.001-0.236-0.003-0.355-0.009c-0.062-0.002-0.123-0.003-0.183-0.007c-0.172-0.01-0.341-0.024-0.507-0.043  c-0.007-0.001-0.016-0.001-0.024-0.003c-0.978-0.115-1.82-0.395-2.143-0.84c-0.403-0.406-0.553-0.816-0.587-0.917  c-0.03-0.058-0.06-0.128-0.087-0.203c-0.001-0.001-0.001-0.001-0.002-0.002c-0.019-0.053-0.037-0.113-0.057-0.175  c-0.008-0.028-0.017-0.056-0.025-0.086c-0.016-0.06-0.031-0.123-0.047-0.188c-0.011-0.041-0.019-0.081-0.028-0.124  c-0.014-0.065-0.027-0.133-0.041-0.204c-0.008-0.05-0.018-0.102-0.026-0.152c-0.013-0.072-0.023-0.142-0.034-0.218  c-0.01-0.061-0.018-0.124-0.026-0.185c-0.001-0.006-0.002-0.013-0.002-0.019c-0.001,0.006-0.002,0.013-0.002,0.019  c-0.01,0.061-0.017,0.124-0.025,0.185c-0.011,0.076-0.021,0.146-0.034,0.218c-0.008,0.051-0.016,0.103-0.025,0.152  c-0.012,0.071-0.021,0.139-0.035,0.204c-0.01,0.043-0.011,0.083-0.021,0.124c-0.015,0.065-0.015,0.129-0.03,0.188  c-0.009,0.03-0.386,0.977-0.79,1.383c-0.323,0.445-1.165,0.725-2.144,0.84c-0.007,0.002-0.016,0.002-0.022,0.003  c-0.166,0.019-0.335,0.033-0.508,0.043c-0.061,0.004-0.12,0.005-0.182,0.007c-0.119,0.006-0.237,0.01-0.358,0.009  c-0.119,0.001-0.237-0.003-0.356-0.009c-0.062-0.002-0.124-0.003-0.184-0.007c-0.172-0.01-0.344-0.024-0.51-0.043  c-0.007-0.001-0.022-0.001-0.031-0.003c-0.978-0.115-1.833-0.395-2.155-0.84c-0.402-0.406-0.577-0.816-0.611-0.917  c-0.03-0.058-0.123-0.318-0.143-0.38c-0.008-0.028-0.004-0.209-0.02-0.274c-0.011-0.041-0.013-0.081-0.022-0.124  c-0.014-0.065-0.016-0.133-0.029-0.204c-0.008-0.05,0.006-0.102-0.003-0.152c-0.013-0.072,0.023-0.142,0.013-0.218  c-0.01-0.061-0.028-0.19-0.028-0.185c-0.01,0.061-0.109,0.124-0.118,0.185c-0.011,0.076-0.019,0.146-0.031,0.218  c-0.008,0.051-0.011,0.103-0.021,0.152c-0.012,0.071-0.01,0.139-0.023,0.204C20.701,91.031,20.251,92.277,19.847,92.684z"/>
</svg>